<svg width="699" height="437" viewBox="0 0 699 437" fill="none" xmlns="http://www.w3.org/2000/svg">
<g filter="url(#filter0_d_1159_2920)">
<path d="M23 386.168V39.168C23 28.1223 31.9543 19.168 43 19.168H554.277C565.323 19.168 574.277 28.1223 574.277 39.168V98.2947C574.277 109.34 583.232 118.295 594.277 118.295H653C664.046 118.295 673 127.249 673 138.295V386.168C673 397.214 664.046 406.168 653 406.168H43C31.9543 406.168 23 397.214 23 386.168Z" fill="white"/>
</g>
<rect x="583.277" y="19.168" width="90" height="90" rx="20" fill="black"/>
<path d="M641.307 52.2695C641.307 51.6454 640.801 51.1395 640.177 51.1395L630.007 51.1395C629.383 51.1395 628.877 51.6454 628.877 52.2695C628.877 52.8935 629.383 53.3994 630.007 53.3994L639.047 53.3994L639.047 62.4391C639.047 63.0632 639.553 63.5691 640.177 63.5691C640.801 63.5691 641.307 63.0632 641.307 62.4391L641.307 52.2695ZM616.378 76.0684L617.177 76.8674L640.976 53.0685L640.177 52.2695L639.378 51.4705L615.579 75.2694L616.378 76.0684Z" fill="white"/>
<defs>
<filter id="filter0_d_1159_2920" x="0.400728" y="4.10179" width="695.199" height="432.199" filterUnits="userSpaceOnUse" color-interpolation-filters="sRGB">
<feFlood flood-opacity="0" result="BackgroundImageFix"/>
<feColorMatrix in="SourceAlpha" type="matrix" values="0 0 0 0 0 0 0 0 0 0 0 0 0 0 0 0 0 0 127 0" result="hardAlpha"/>
<feOffset dy="7.53309"/>
<feGaussianBlur stdDeviation="11.2996"/>
<feComposite in2="hardAlpha" operator="out"/>
<feColorMatrix type="matrix" values="0 0 0 0 0 0 0 0 0 0 0 0 0 0 0 0 0 0 0.25 0"/>
<feBlend mode="normal" in2="BackgroundImageFix" result="effect1_dropShadow_1159_2920"/>
<feBlend mode="normal" in="SourceGraphic" in2="effect1_dropShadow_1159_2920" result="shape"/>
</filter>
</defs>
</svg>
