<svg width="16" height="15" viewBox="0 0 16 15" fill="none" xmlns="http://www.w3.org/2000/svg">
<path d="M15.1485 11.8227L15.119 0.439318L3.73559 0.409782C3.61699 0.393724 3.49633 0.403335 3.38177 0.437965C3.26721 0.472595 3.16143 0.531436 3.07158 0.610502C2.98174 0.689569 2.90993 0.787015 2.86103 0.896246C2.81212 1.00548 2.78725 1.12394 2.7881 1.24362C2.78896 1.36329 2.81552 1.48139 2.86598 1.58991C2.91644 1.69843 2.98963 1.79484 3.0806 1.87262C3.17156 1.95039 3.27817 2.00771 3.39322 2.0407C3.50826 2.0737 3.62905 2.08158 3.74741 2.06383L12.2776 2.09928L0.976871 13.4C0.820199 13.5567 0.732182 13.7692 0.732181 13.9907C0.732181 14.2123 0.820198 14.4248 0.97687 14.5815C1.13354 14.7381 1.34604 14.8261 1.5676 14.8261C1.78917 14.8261 2.00166 14.7381 2.15834 14.5815L13.459 3.28074L13.4945 11.8109C13.4953 12.0326 13.5841 12.2449 13.7414 12.4011C13.8987 12.5573 14.1116 12.6446 14.3333 12.6439C14.555 12.6431 14.7673 12.5542 14.9235 12.3969C15.0797 12.2396 15.167 12.0267 15.1663 11.805L15.1485 11.8227Z" fill="black"/>
</svg>
