<svg width="305" height="70" viewBox="0 0 305 70" fill="none" xmlns="http://www.w3.org/2000/svg">
<path d="M41.7061 5.29773C43.9797 5.63416 46.1699 6.22582 48.2461 7.0448C47.9309 7.78751 48.2642 8.64979 49.0029 8.98523C50.7023 9.75644 52.3126 10.691 53.8135 11.7684C54.4725 12.2415 55.3844 12.0991 55.8711 11.4559C57.6419 12.8656 59.2484 14.4723 60.6582 16.243C60.0152 16.7297 59.8738 17.6427 60.3467 18.3016C61.4241 19.8026 62.3587 21.4128 63.1299 23.1122C63.4652 23.8511 64.3266 24.1822 65.0693 23.8671C65.8886 25.9435 66.4798 28.1341 66.8164 30.4081C66.0164 30.5069 65.4361 31.226 65.5146 32.0331C65.6037 32.9477 65.6494 33.8755 65.6494 34.8143C65.6494 35.7533 65.6037 36.6818 65.5146 37.5966C65.4364 38.4037 66.0171 39.1212 66.8174 39.2196C66.4809 41.4936 65.8894 43.6842 65.0703 45.7606C64.3748 45.4654 63.5747 45.7381 63.2002 46.3807L63.1299 46.5165C62.3587 48.2158 61.4241 49.8261 60.3467 51.327C59.8738 51.9857 60.0157 52.8978 60.6582 53.3846C59.2485 55.1555 57.6419 56.762 55.8711 58.1718C55.3842 57.5294 54.4722 57.3875 53.8135 57.8602C52.3125 58.9377 50.7023 59.8722 49.0029 60.6434C48.2641 60.9788 47.9319 61.8411 48.2471 62.5839C46.1706 63.403 43.98 63.9944 41.7061 64.3309C41.6074 63.5307 40.8892 62.9506 40.082 63.0292C39.1674 63.1182 38.2396 63.1639 37.3008 63.1639C36.3619 63.1639 35.4342 63.1182 34.5195 63.0292L34.3672 63.0214C33.6238 63.0242 32.9873 63.5808 32.8945 64.33C30.6208 63.9934 28.4307 63.402 26.3545 62.5829C26.6691 61.8403 26.3373 60.9787 25.5986 60.6434L24.9658 60.3466C23.4986 59.6363 22.1014 58.803 20.7881 57.8602C20.1292 57.3875 19.2162 57.529 18.7295 58.1718C16.9588 56.762 15.3521 55.1555 13.9424 53.3846C14.5854 52.8979 14.7279 51.986 14.2549 51.327L13.8574 50.7596C12.9462 49.4227 12.1465 48.0035 11.4717 46.5165C11.1362 45.7779 10.2739 45.4446 9.53125 45.7596C8.71229 43.6835 8.12059 41.4933 7.78418 39.2196C8.58448 39.1212 9.1652 38.4037 9.08691 37.5966L9.02832 36.9081C8.99471 36.4473 8.97227 35.9833 8.96094 35.5165L8.95215 34.8143C8.95215 34.1102 8.97795 33.4123 9.02832 32.7216L9.08691 32.0331C9.16549 31.2257 8.58473 30.5064 7.78418 30.4081C8.1207 28.1345 8.71221 25.9442 9.53125 23.868C10.2741 24.1835 11.1363 23.8512 11.4717 23.1122C12.1464 21.6253 12.9463 20.2069 13.8574 18.87L14.2549 18.3016C14.728 17.6425 14.586 16.7296 13.9424 16.243C15.3521 14.4723 16.9588 12.8656 18.7295 11.4559C19.2161 12.0995 20.1289 12.2416 20.7881 11.7684C22.1015 10.8256 23.4985 9.99234 24.9658 9.2821L25.5986 8.98523C26.3376 8.64976 26.6699 7.78762 26.3545 7.0448C28.4306 6.22576 30.6209 5.63424 32.8945 5.29773C32.9867 6.04761 33.6233 6.60442 34.3672 6.6073L34.5195 6.60046C35.4342 6.51146 36.3619 6.4657 37.3008 6.4657C38.2396 6.4657 39.1674 6.51146 40.082 6.60046C40.8894 6.67904 41.6076 6.09821 41.7061 5.29773Z" stroke="#302815" stroke-width="2.9841" stroke-miterlimit="2.9238" stroke-linecap="round" stroke-linejoin="round" stroke-dasharray="6.1 10.17"/>
<path d="M49.2949 32.0223C49.3561 32.0325 49.4142 32.0621 49.46 32.1083L49.4639 32.1122C49.5157 32.164 49.889 32.6039 50.2363 34.2548C50.5786 35.8814 50.874 38.577 50.874 42.9999C50.8739 46.3561 49.571 49.0618 47.2861 50.9471C44.982 52.8484 41.5972 53.979 37.3545 53.9794C37.3179 53.9792 37.2813 53.9726 37.2471 53.9579L37.2402 53.954L37.2529 53.9589C37.2436 53.9512 37.1711 53.9033 37.0361 53.7665C36.8757 53.6038 36.6776 53.3683 36.457 53.0624C36.0166 52.4516 35.523 51.6112 35.0879 50.6278C34.2084 48.64 33.6292 46.2104 34.0615 43.994V43.993C34.6671 40.8781 36.9552 38.1829 41.1846 36.0487L49.1133 32.0497L49.1143 32.0507C49.1706 32.0223 49.2338 32.0123 49.2949 32.0223ZM25.2412 32.1122H25.2422L25.2461 32.1083C25.2919 32.0621 25.3499 32.0324 25.4111 32.0223C25.4722 32.0124 25.5355 32.0223 25.5918 32.0507V32.0497L33.5205 36.0487L33.5225 36.0497C33.5946 36.086 33.6524 36.1512 33.6797 36.2333C33.7071 36.3157 33.7002 36.4061 33.6621 36.4833C33.6242 36.5601 33.5591 36.6158 33.4834 36.6415C33.4088 36.6667 33.3272 36.6618 33.2559 36.6268L26.6074 33.2675L25.4062 32.66L25.1504 33.9813C24.6095 36.7758 24.3669 39.6202 24.4258 42.4657L24.4414 43.035C24.406 45.0511 25.0051 47.0275 26.1562 48.6796C27.3118 50.3379 28.9625 51.5823 30.8691 52.2313C30.9055 52.2454 30.9395 52.267 30.9688 52.2948C30.9984 52.3231 31.023 52.3576 31.04 52.3964C31.0571 52.4351 31.0664 52.4774 31.0674 52.5204C31.0683 52.5635 31.0604 52.6066 31.0449 52.6464C31.0294 52.686 31.0061 52.7212 30.9775 52.7509C30.9489 52.7805 30.9155 52.8045 30.8789 52.8202C30.8425 52.8358 30.8037 52.8433 30.7646 52.8436C30.7255 52.8439 30.6861 52.8364 30.6494 52.8212L30.623 52.8104L30.5957 52.8007C28.5915 52.1005 26.8564 50.7784 25.6406 49.0214C24.5008 47.3739 23.8722 45.424 23.8311 43.4198V42.9999C23.8311 38.577 24.1265 35.8814 24.4688 34.2548C24.8159 32.6049 25.189 32.1645 25.2412 32.1122ZM48.0967 33.2665L41.4492 36.62C37.6917 38.5156 35.2762 40.9948 34.6611 44.0956L34.6572 44.1132L34.6553 44.1298C34.3448 46.0319 34.5975 47.9847 35.3828 49.743L36.6973 52.6874L37.3096 49.5214C37.7186 47.4048 38.6504 45.4272 40.0186 43.7723C41.3867 42.1174 43.1465 40.8385 45.1338 40.0536L45.1562 40.0458L45.1777 40.036C45.214 40.0197 45.2529 40.0106 45.292 40.0096C45.3311 40.0088 45.3704 40.0156 45.4072 40.0302C45.4441 40.0447 45.4785 40.0669 45.5078 40.0956C45.5371 40.1242 45.5605 40.1592 45.5771 40.1981C45.5938 40.2373 45.6031 40.28 45.6035 40.3231C45.6039 40.3661 45.596 40.4087 45.5801 40.4481C45.5641 40.4876 45.5407 40.5233 45.5117 40.5526C45.4974 40.5671 45.4814 40.5795 45.4648 40.5907L45.4121 40.619C43.0952 41.5442 41.11 43.1525 39.7158 45.2323C38.319 47.316 37.5808 49.7764 37.5957 52.2899L37.6016 53.3007H38.6436L38.6738 53.2987C42.1239 53.0928 45.0189 52.0743 47.0684 50.2928C49.0095 48.6054 50.1197 46.2942 50.251 43.5536L50.2646 42.9999C50.3669 39.9763 50.1279 36.9507 49.5527 33.9813L49.2979 32.662L48.0967 33.2665Z" stroke="#27B43E" stroke-width="2.03346"/>
<path d="M18.9492 23.478C18.9492 23.478 23.9137 27.1985 37.3519 27.1375C50.7902 27.0765 55.7546 23.478 55.7546 23.478" stroke="#27B43E" stroke-width="2.03346" stroke-linecap="round"/>
<path d="M37.3506 14.5306C42.5322 14.5306 47.1851 15.1438 50.5098 16.1127C52.1787 16.5991 53.4556 17.1595 54.292 17.7357C55.1598 18.3337 55.3466 18.7965 55.3467 19.0551C55.3467 19.3136 55.16 19.7773 54.292 20.3754C53.4556 20.9515 52.1785 21.5111 50.5098 21.9974C47.1851 22.9663 42.5323 23.5795 37.3506 23.5795C32.1689 23.5795 27.5161 22.9664 24.1914 21.9974C22.5226 21.5111 21.2455 20.9516 20.4092 20.3754C19.5412 19.7773 19.3545 19.3136 19.3545 19.0551C19.3546 18.7965 19.5414 18.3337 20.4092 17.7357C21.2455 17.1595 22.5224 16.5991 24.1914 16.1127C27.5161 15.1438 32.1689 14.5306 37.3506 14.5306Z" stroke="#27B43E" stroke-width="2.03346"/>
<path d="M63.7365 25.8297L58.0117 28.2784C56.8892 28.7586 56.1611 29.8619 56.1611 31.0828V37.458L58.289 33.1597C58.5588 32.6147 58.9853 32.1628 59.5139 31.862L61.8294 30.5443L63.7325 29.8016C64.5134 29.4968 65.3853 29.5269 66.1433 29.8847L69.048 31.2557C70.3633 31.8766 71.0573 33.3397 70.7059 34.7511L68.5825 43.2789C68.32 44.3332 67.5165 45.1682 66.4731 45.4711L58.7029 47.727L56.1611 52.8107L69.1945 49.1126C70.2236 48.8206 71.0245 48.0109 71.3052 46.9787L75.1973 32.6681C75.5931 31.213 74.8662 29.6871 73.4869 29.0777L66.1688 25.8441C65.3951 25.5022 64.5142 25.497 63.7365 25.8297Z" fill="#302815"/>
<path d="M89.0355 36.1461C90.9056 36.1063 91.8406 34.9425 91.8406 32.6547C91.8406 31.8391 91.6914 30.7349 91.393 29.3424C91.1144 27.9299 90.9752 27.0247 90.9752 26.6268C90.9752 23.9014 92.8353 22.5386 96.5554 22.5386C97.6894 22.5386 98.6045 22.6679 99.3008 22.9266L99.1516 23.404C98.7338 23.2648 98.336 23.1951 97.958 23.1951C96.8837 23.1951 96.3466 23.8417 96.3466 25.1348C96.3466 25.7316 96.4858 26.9252 96.7643 28.7157C97.0428 30.4863 97.1821 31.7097 97.1821 32.3861C97.1821 33.7588 96.7942 34.7336 96.0183 35.3106C95.2623 35.8676 93.9593 36.1958 92.1091 36.2953V36.355C93.8797 36.4942 95.1629 36.8623 95.9586 37.4591C96.7743 38.036 97.1821 39.0307 97.1821 40.4432C97.1821 41.0599 97.0428 42.3232 96.7643 44.233C96.4858 46.1229 96.3466 47.3961 96.3466 48.0526C96.3466 49.2662 96.9334 49.8729 98.1072 49.8729C98.5448 49.8729 98.9825 49.7934 99.4202 49.6342L99.5694 50.1117C98.8333 50.43 97.9779 50.5891 97.0031 50.5891C92.9845 50.5891 90.9752 49.1468 90.9752 46.2622C90.9752 45.9439 91.1144 45.0387 91.393 43.5467C91.6914 42.0347 91.8406 40.8809 91.8406 40.0851C91.8406 37.8172 90.9056 36.6633 89.0355 36.6236V36.1461ZM117.652 24.9259L117.95 32.416H117.383C116.508 29.7701 115.732 27.9697 115.055 27.0148C114.379 26.04 113.404 25.5526 112.131 25.5526H111.773V45.1879H114.309V45.8146H103.417V45.1879H105.954V25.5526H105.566C104.293 25.5526 103.308 26.0599 102.612 27.0745C101.915 28.0691 101.15 29.8497 100.314 32.416H99.747L100.045 24.9259H117.652ZM124.516 46.113C121.95 46.113 120.02 45.4565 118.727 44.1435C117.454 42.8106 116.817 40.9704 116.817 38.6229C116.817 36.2555 117.534 34.4452 118.966 33.1918C120.418 31.9385 122.258 31.3119 124.487 31.3119C129.003 31.3119 131.171 33.5798 130.992 38.1156H122.577V39.2794C122.577 41.229 122.825 42.7012 123.323 43.6959C123.82 44.6906 124.686 45.1879 125.919 45.1879C128.227 45.1879 129.739 43.9545 130.455 41.4876L130.992 41.5772C130.614 43.0095 129.928 44.1236 128.933 44.9193C127.958 45.7151 126.486 46.113 124.516 46.113ZM122.607 37.5188H125.68V36.0566C125.68 34.4452 125.581 33.351 125.382 32.7741C125.203 32.1773 124.825 31.8788 124.248 31.8788C123.691 31.8788 123.273 32.1971 122.995 32.8338C122.736 33.4505 122.607 34.5247 122.607 36.0566V37.5188ZM131.16 23.4339H138.351V34.3556C138.67 33.4405 139.157 32.7044 139.814 32.1474C140.47 31.5904 141.465 31.3119 142.798 31.3119C145.881 31.3119 147.423 32.973 147.423 36.2953V45.2774H149.094V45.8146H140.649V45.2774H141.873V35.5791C141.873 34.3855 141.793 33.6196 141.634 33.2814C141.475 32.9233 141.186 32.7442 140.769 32.7442C140.132 32.7442 139.565 33.162 139.068 33.9976C138.59 34.8331 138.351 35.8477 138.351 37.0413V45.2774H139.635V45.8146H131.16V45.2774H132.801V23.971H131.16V23.4339ZM174.128 35.0121C174.128 39.1103 172.974 41.9651 170.666 43.5765C168.538 45.0686 165.613 45.8146 161.893 45.8146H153.448V45.2476H155.417V25.4929H153.448V24.9259H162.669C166.488 24.9259 169.353 25.7117 171.263 27.2833C173.173 28.8351 174.128 31.4113 174.128 35.0121ZM161.236 45.2476H162.37C164.38 45.2476 165.812 44.5414 166.667 43.1289C167.543 41.6965 167.98 39.3092 167.98 35.9671V34.2363C167.98 29.7601 167.125 27.0645 165.414 26.1494C164.599 25.7117 163.445 25.4929 161.953 25.4929H161.236V45.2476ZM182.599 46.113C180.033 46.113 178.103 45.4565 176.81 44.1435C175.537 42.8106 174.9 40.9704 174.9 38.6229C174.9 36.2555 175.616 34.4452 177.049 33.1918C178.501 31.9385 180.341 31.3119 182.569 31.3119C187.085 31.3119 189.254 33.5798 189.075 38.1156H180.659V39.2794C180.659 41.229 180.908 42.7012 181.405 43.6959C181.903 44.6906 182.768 45.1879 184.002 45.1879C186.309 45.1879 187.821 43.9545 188.537 41.4876L189.075 41.5772C188.697 43.0095 188.01 44.1236 187.016 44.9193C186.041 45.7151 184.569 46.113 182.599 46.113ZM180.689 37.5188H183.763V36.0566C183.763 34.4452 183.663 33.351 183.464 32.7741C183.285 32.1773 182.907 31.8788 182.33 31.8788C181.773 31.8788 181.356 32.1971 181.077 32.8338C180.819 33.4505 180.689 34.5247 180.689 36.0566V37.5188ZM188.186 32.1474V31.6103H197.109V32.1474H195.229L198.81 42.0546L202.033 32.1474H200.033V31.6103H204.062V32.1474H202.749L198.332 45.8146H194.93L189.41 32.1474H188.186ZM210.562 46.113C207.996 46.113 206.066 45.4565 204.773 44.1435C203.5 42.8106 202.863 40.9704 202.863 38.6229C202.863 36.2555 203.579 34.4452 205.012 33.1918C206.464 31.9385 208.304 31.3119 210.532 31.3119C215.048 31.3119 217.217 33.5798 217.038 38.1156H208.622V39.2794C208.622 41.229 208.871 42.7012 209.368 43.6959C209.866 44.6906 210.731 45.1879 211.965 45.1879C214.272 45.1879 215.784 43.9545 216.5 41.4876L217.038 41.5772C216.66 43.0095 215.973 44.1236 214.979 44.9193C214.004 45.7151 212.532 46.113 210.562 46.113ZM208.652 37.5188H211.726V36.0566C211.726 34.4452 211.626 33.351 211.428 32.7741C211.248 32.1773 210.87 31.8788 210.294 31.8788C209.737 31.8788 209.319 32.1971 209.04 32.8338C208.782 33.4505 208.652 34.5247 208.652 36.0566V37.5188ZM217.086 23.4339H224.397V45.2774H226.068V45.8146H217.205V45.2774H218.847V23.971H217.086V23.4339ZM235.391 39.9359V37.3994C235.391 35.4697 235.281 34.0672 235.062 33.1918C234.864 32.2966 234.386 31.849 233.63 31.849C233.192 31.849 232.834 31.9783 232.556 32.2369C232.297 32.4757 232.108 32.8835 231.989 33.4604C231.81 34.3556 231.72 35.7184 231.72 37.5486V39.8762C231.72 42.0447 231.78 43.3477 231.899 43.7854C232.039 44.2231 232.178 44.5811 232.317 44.8597C232.536 45.3371 232.964 45.5758 233.6 45.5758C234.376 45.5758 234.883 45.1282 235.122 44.233C235.301 43.5964 235.391 42.164 235.391 39.9359ZM233.541 46.113C231.054 46.113 229.174 45.4764 227.901 44.2032C226.627 42.9299 225.991 41.1096 225.991 38.7423C225.991 36.355 226.667 34.5247 228.02 33.2515C229.393 31.9584 231.312 31.3119 233.779 31.3119C236.246 31.3119 238.086 31.9087 239.3 33.1023C240.513 34.2761 241.12 36.0765 241.12 38.5035C241.12 43.5765 238.594 46.113 233.541 46.113ZM251.952 37.7874C251.952 35.7383 251.852 34.3656 251.653 33.6693C251.454 32.9531 251.066 32.595 250.489 32.595C249.912 32.595 249.395 32.973 248.938 33.729C248.48 34.4651 248.251 35.4598 248.251 36.7131V42.174C248.251 43.0294 248.42 43.7555 248.759 44.3524C249.097 44.9492 249.594 45.2476 250.251 45.2476C250.907 45.2476 251.355 44.8099 251.593 43.9346C251.832 43.0593 251.952 41.5274 251.952 39.3391V37.7874ZM248.192 31.6103V33.9677C248.967 32.1971 250.34 31.3119 252.31 31.3119C254.021 31.3119 255.343 31.9286 256.278 33.162C257.233 34.3954 257.711 36.2655 257.711 38.7721C257.711 41.2787 257.194 43.1289 256.159 44.3225C255.145 45.5162 253.613 46.113 251.564 46.113C250.609 46.113 249.893 45.9936 249.415 45.7549C248.938 45.5162 248.55 45.1481 248.251 44.6508V52.3796H252.101V52.9167H241.06V52.3796H242.701V32.1474H241.119V31.6103H248.192ZM265.556 46.113C262.989 46.113 261.06 45.4565 259.767 44.1435C258.493 42.8106 257.857 40.9704 257.857 38.6229C257.857 36.2555 258.573 34.4452 260.005 33.1918C261.458 31.9385 263.298 31.3119 265.526 31.3119C270.042 31.3119 272.21 33.5798 272.031 38.1156H263.616V39.2794C263.616 41.229 263.865 42.7012 264.362 43.6959C264.859 44.6906 265.725 45.1879 266.958 45.1879C269.266 45.1879 270.778 43.9545 271.494 41.4876L272.031 41.5772C271.653 43.0095 270.967 44.1236 269.972 44.9193C268.997 45.7151 267.525 46.113 265.556 46.113ZM263.646 37.5188H266.72V36.0566C266.72 34.4452 266.62 33.351 266.421 32.7741C266.242 32.1773 265.864 31.8788 265.287 31.8788C264.73 31.8788 264.312 32.1971 264.034 32.8338C263.775 33.4505 263.646 34.5247 263.646 36.0566V37.5188ZM282.166 32.4458C281.43 32.4458 280.783 32.9233 280.226 33.8782C279.669 34.8331 279.391 35.9671 279.391 37.2801V45.2774H281.509V45.8146H272.199V45.2774H273.84V32.1474H272.199V31.6103H279.391V34.475C279.649 33.4604 280.147 32.6846 280.883 32.1474C281.619 31.5904 282.454 31.3119 283.389 31.3119C284.324 31.3119 285.08 31.5804 285.657 32.1176C286.254 32.6348 286.553 33.3808 286.553 34.3556C286.553 35.3106 286.334 36.0466 285.896 36.5639C285.458 37.0811 284.782 37.3397 283.867 37.3397C282.972 37.3397 282.305 37.0413 281.868 36.4445C281.45 35.8477 281.4 35.0221 281.718 33.9677H282.793C283.29 32.9531 283.081 32.4458 282.166 32.4458ZM296.314 36.1461V36.6236C294.444 36.6633 293.509 37.8172 293.509 40.0851C293.509 40.8809 293.648 42.0347 293.927 43.5467C294.225 45.0387 294.374 45.9439 294.374 46.2622C294.374 49.1468 292.365 50.5891 288.347 50.5891C287.372 50.5891 286.516 50.43 285.78 50.1117L285.929 49.6342C286.367 49.7934 286.835 49.8729 287.332 49.8729C288.446 49.8729 289.003 49.2065 289.003 47.8736C289.003 47.3365 288.864 46.1229 288.585 44.233C288.307 42.3232 288.168 41.0599 288.168 40.4432C288.168 39.0307 288.565 38.036 289.361 37.4591C290.177 36.8623 291.47 36.4942 293.24 36.355V36.2953C291.39 36.1958 290.077 35.8676 289.301 35.3106C288.546 34.7336 288.168 33.7588 288.168 32.3861C288.168 31.7097 288.307 30.4863 288.585 28.7157C288.864 26.9252 289.003 25.7316 289.003 25.1348C289.003 23.8417 288.466 23.1951 287.392 23.1951C287.014 23.1951 286.616 23.2648 286.198 23.404L286.049 22.9266C286.745 22.6679 287.66 22.5386 288.794 22.5386C292.514 22.5386 294.374 23.9014 294.374 26.6268C294.374 27.0247 294.225 27.9299 293.927 29.3424C293.648 30.7349 293.509 31.8391 293.509 32.6547C293.509 34.9425 294.444 36.1063 296.314 36.1461Z" fill="#302815"/>
</svg>
