<svg width="305" height="70" viewBox="0 0 305 70" fill="none" xmlns="http://www.w3.org/2000/svg">
<rect y="0.172241" width="304.78" height="69.6556" rx="4.97349" fill="white"/>
<path d="M41.7061 5.46997C43.9797 5.8064 46.1699 6.39806 48.2461 7.21704C47.9309 7.95975 48.2642 8.82203 49.0029 9.15747C50.7023 9.92868 52.3126 10.8632 53.8135 11.9407C54.4725 12.4137 55.3844 12.2713 55.8711 11.6282C57.6419 13.0379 59.2484 14.6446 60.6582 16.4153C60.0152 16.902 59.8738 17.8149 60.3467 18.4739C61.4241 19.9748 62.3587 21.5851 63.1299 23.2844C63.4652 24.0233 64.3266 24.3544 65.0693 24.0393C65.8886 26.1157 66.4798 28.3063 66.8164 30.5803C66.0164 30.6792 65.4361 31.3983 65.5146 32.2053C65.6037 33.12 65.6494 34.0477 65.6494 34.9866C65.6494 35.9255 65.6037 36.8541 65.5146 37.7688C65.4364 38.5759 66.0171 39.2934 66.8174 39.3918C66.4809 41.6658 65.8894 43.8564 65.0703 45.9329C64.3748 45.6376 63.5747 45.9104 63.2002 46.553L63.1299 46.6887C62.3587 48.388 61.4241 49.9984 60.3467 51.4993C59.8738 52.158 60.0157 53.07 60.6582 53.5569C59.2485 55.3277 57.6419 56.9342 55.8711 58.344C55.3842 57.7017 54.4722 57.5598 53.8135 58.0325C52.3125 59.1099 50.7023 60.0445 49.0029 60.8157C48.2641 61.1511 47.9319 62.0133 48.2471 62.7561C46.1706 63.5753 43.98 64.1667 41.7061 64.5032C41.6074 63.7029 40.8892 63.1229 40.082 63.2014C39.1674 63.2904 38.2396 63.3362 37.3008 63.3362C36.3619 63.3362 35.4342 63.2904 34.5195 63.2014L34.3672 63.1936C33.6238 63.1965 32.9873 63.753 32.8945 64.5022C30.6208 64.1657 28.4307 63.5742 26.3545 62.7551C26.6691 62.0125 26.3373 61.1509 25.5986 60.8157L24.9658 60.5188C23.4986 59.8086 22.1014 58.9753 20.7881 58.0325C20.1292 57.5597 19.2162 57.7012 18.7295 58.344C16.9588 56.9342 15.3521 55.3277 13.9424 53.5569C14.5854 53.0701 14.7279 52.1582 14.2549 51.4993L13.8574 50.9319C12.9462 49.5949 12.1465 48.1757 11.4717 46.6887C11.1362 45.9501 10.2739 45.6168 9.53125 45.9319C8.71229 43.8557 8.12059 41.6655 7.78418 39.3918C8.58448 39.2934 9.1652 38.5759 9.08691 37.7688L9.02832 37.0803C8.99471 36.6195 8.97227 36.1556 8.96094 35.6887L8.95215 34.9866C8.95215 34.2824 8.97795 33.5846 9.02832 32.8938L9.08691 32.2053C9.16549 31.3979 8.58473 30.6787 7.78418 30.5803C8.1207 28.3067 8.71221 26.1164 9.53125 24.0403C10.2741 24.3558 11.1363 24.0235 11.4717 23.2844C12.1464 21.7976 12.9463 20.3791 13.8574 19.0422L14.2549 18.4739C14.728 17.8147 14.586 16.9019 13.9424 16.4153C15.3521 14.6446 16.9588 13.0379 18.7295 11.6282C19.2161 12.2718 20.1289 12.4139 20.7881 11.9407C22.1015 10.9978 23.4985 10.1646 24.9658 9.45435L25.5986 9.15747C26.3376 8.822 26.6699 7.95986 26.3545 7.21704C28.4306 6.398 30.6209 5.80648 32.8945 5.46997C32.9867 6.21985 33.6233 6.77666 34.3672 6.77954L34.5195 6.77271C35.4342 6.6837 36.3619 6.63794 37.3008 6.63794C38.2396 6.63794 39.1674 6.6837 40.082 6.77271C40.8894 6.85128 41.6076 6.27045 41.7061 5.46997Z" stroke="#302815" stroke-width="2.9841" stroke-miterlimit="2.9238" stroke-linecap="round" stroke-linejoin="round" stroke-dasharray="6.1 10.17"/>
<path d="M49.2949 32.1946C49.3561 32.2047 49.4142 32.2343 49.46 32.2805L49.4639 32.2844C49.5157 32.3363 49.889 32.7762 50.2363 34.427C50.5786 36.0536 50.874 38.7493 50.874 43.1721C50.8739 46.5284 49.571 49.234 47.2861 51.1194C44.982 53.0206 41.5972 54.1513 37.3545 54.1516C37.3179 54.1514 37.2813 54.1448 37.2471 54.1301L37.2402 54.1262L37.2529 54.1311C37.2436 54.1235 37.1711 54.0755 37.0361 53.9387C36.8757 53.7761 36.6776 53.5405 36.457 53.2346C36.0166 52.6238 35.523 51.7834 35.0879 50.8C34.2084 48.8123 33.6292 46.3827 34.0615 44.1663V44.1653C34.6671 41.0504 36.9552 38.3551 41.1846 36.2209L49.1133 32.2219L49.1143 32.2229C49.1706 32.1946 49.2338 32.1845 49.2949 32.1946ZM25.2412 32.2844H25.2422L25.2461 32.2805C25.2919 32.2344 25.3499 32.2046 25.4111 32.1946C25.4722 32.1846 25.5355 32.1946 25.5918 32.2229V32.2219L33.5205 36.2209L33.5225 36.2219C33.5946 36.2582 33.6524 36.3234 33.6797 36.4055C33.7071 36.488 33.7002 36.5783 33.6621 36.6555C33.6242 36.7323 33.5591 36.7881 33.4834 36.8137C33.4088 36.8389 33.3272 36.8341 33.2559 36.7991L26.6074 33.4397L25.4062 32.8323L25.1504 34.1536C24.6095 36.948 24.3669 39.7925 24.4258 42.6379L24.4414 43.2073C24.406 45.2233 25.0051 47.1997 26.1562 48.8518C27.3118 50.5101 28.9625 51.7546 30.8691 52.4036C30.9055 52.4177 30.9395 52.4392 30.9688 52.467C30.9984 52.4953 31.023 52.5298 31.04 52.5686C31.0571 52.6074 31.0664 52.6496 31.0674 52.6926C31.0683 52.7358 31.0604 52.7789 31.0449 52.8186C31.0294 52.8582 31.0061 52.8934 30.9775 52.9231C30.9489 52.9528 30.9155 52.9767 30.8789 52.9924C30.8425 53.008 30.8037 53.0156 30.7646 53.0159C30.7255 53.0161 30.6861 53.0086 30.6494 52.9934L30.623 52.9827L30.5957 52.9729C28.5915 52.2727 26.8564 50.9506 25.6406 49.1936C24.5008 47.5462 23.8722 45.5962 23.8311 43.592V43.1721C23.8311 38.7493 24.1265 36.0536 24.4688 34.427C24.8159 32.7772 25.189 32.3367 25.2412 32.2844ZM48.0967 33.4387L41.4492 36.7922C37.6917 38.6879 35.2762 41.1671 34.6611 44.2678L34.6572 44.2854L34.6553 44.302C34.3448 46.2042 34.5975 48.1569 35.3828 49.9153L36.6973 52.8596L37.3096 49.6936C37.7186 47.5771 38.6504 45.5995 40.0186 43.9446C41.3867 42.2897 43.1465 41.0107 45.1338 40.2258L45.1562 40.218L45.1777 40.2083C45.214 40.192 45.2529 40.1828 45.292 40.1819C45.3311 40.181 45.3704 40.1878 45.4072 40.2024C45.4441 40.217 45.4785 40.2392 45.5078 40.2678C45.5371 40.2965 45.5605 40.3314 45.5771 40.3704C45.5938 40.4095 45.6031 40.4522 45.6035 40.4954C45.6039 40.5384 45.596 40.581 45.5801 40.6204C45.5641 40.6598 45.5407 40.6956 45.5117 40.7249C45.4974 40.7394 45.4814 40.7518 45.4648 40.7629L45.4121 40.7913C43.0952 41.7164 41.11 43.3248 39.7158 45.4045C38.319 47.4883 37.5808 49.9486 37.5957 52.4622L37.6016 53.4729H38.6436L38.6738 53.4709C42.1239 53.2651 45.0189 52.2465 47.0684 50.4651C49.0095 48.7777 50.1197 46.4665 50.251 43.7258L50.2646 43.1721C50.3669 40.1485 50.1279 37.1229 49.5527 34.1536L49.2979 32.8342L48.0967 33.4387Z" stroke="#27B43E" stroke-width="2.03346"/>
<path d="M18.9492 23.6503C18.9492 23.6503 23.9137 27.3707 37.3519 27.3098C50.7902 27.2488 55.7546 23.6503 55.7546 23.6503" stroke="#27B43E" stroke-width="2.03346" stroke-linecap="round"/>
<path d="M37.3506 14.7029C42.5322 14.7029 47.1851 15.316 50.5098 16.2849C52.1787 16.7713 53.4556 17.3317 54.292 17.908C55.1598 18.5059 55.3466 18.9687 55.3467 19.2273C55.3467 19.4858 55.16 19.9495 54.292 20.5476C53.4556 21.1238 52.1785 21.6833 50.5098 22.1697C47.1851 23.1386 42.5323 23.7517 37.3506 23.7517C32.1689 23.7517 27.5161 23.1386 24.1914 22.1697C22.5226 21.6833 21.2455 21.1238 20.4092 20.5476C19.5412 19.9495 19.3545 19.4858 19.3545 19.2273C19.3546 18.9687 19.5414 18.5059 20.4092 17.908C21.2455 17.3317 22.5224 16.7713 24.1914 16.2849C27.5161 15.316 32.1689 14.7029 37.3506 14.7029Z" stroke="#27B43E" stroke-width="2.03346"/>
<path d="M63.3369 25.0673C64.3738 24.6238 65.5485 24.631 66.5801 25.0868L73.8975 28.3202C75.7365 29.1328 76.7064 31.1672 76.1787 33.1073L72.2861 47.4178C71.9118 48.7941 70.8437 49.8733 69.4717 50.2626L56.4385 53.9608L54.2207 54.5907L57.7939 47.4442L57.9922 47.0468L58.4199 46.9227L66.1895 44.6669C66.8849 44.465 67.4206 43.9086 67.5957 43.2059L69.7197 34.6776C69.9539 33.7368 69.4909 32.7615 68.6143 32.3475L65.709 30.9764C65.2038 30.7381 64.6229 30.7178 64.1025 30.9208L62.2666 31.6366L60.0166 32.9178C59.6643 33.1184 59.38 33.4198 59.2002 33.7831L57.0723 38.0809L55.1445 37.6307V31.2548C55.1446 29.627 56.1157 28.1557 57.6123 27.5155L63.3369 25.0673Z" fill="#302815" stroke="white" stroke-width="2.03346" stroke-linecap="round"/>
<path d="M89.0355 36.3183C90.9056 36.2786 91.8406 35.1148 91.8406 32.827C91.8406 32.0113 91.6914 30.9072 91.393 29.5146C91.1144 28.1021 90.9752 27.197 90.9752 26.7991C90.9752 24.0736 92.8353 22.7109 96.5554 22.7109C97.6894 22.7109 98.6045 22.8402 99.3008 23.0988L99.1516 23.5763C98.7338 23.437 98.336 23.3674 97.958 23.3674C96.8837 23.3674 96.3466 24.0139 96.3466 25.307C96.3466 25.9038 96.4858 27.0975 96.7643 28.8879C97.0428 30.6585 97.1821 31.882 97.1821 32.5584C97.1821 33.9311 96.7942 34.9059 96.0183 35.4828C95.2623 36.0398 93.9593 36.3681 92.1091 36.4675V36.5272C93.8797 36.6665 95.1629 37.0345 95.9586 37.6313C96.7743 38.2083 97.1821 39.203 97.1821 40.6154C97.1821 41.2322 97.0428 42.4954 96.7643 44.4052C96.4858 46.2952 96.3466 47.5684 96.3466 48.2249C96.3466 49.4384 96.9334 50.0452 98.1072 50.0452C98.5448 50.0452 98.9825 49.9656 99.4202 49.8065L99.5694 50.2839C98.8333 50.6022 97.9779 50.7614 97.0031 50.7614C92.9845 50.7614 90.9752 49.3191 90.9752 46.4344C90.9752 46.1161 91.1144 45.211 91.393 43.7189C91.6914 42.207 91.8406 41.0531 91.8406 40.2574C91.8406 37.9894 90.9056 36.8356 89.0355 36.7958V36.3183ZM117.652 25.0981L117.95 32.5882H117.383C116.508 29.9423 115.732 28.1419 115.055 27.187C114.379 26.2122 113.404 25.7248 112.131 25.7248H111.773V45.3602H114.309V45.9868H103.417V45.3602H105.954V25.7248H105.566C104.293 25.7248 103.308 26.2321 102.612 27.2467C101.915 28.2414 101.15 30.0219 100.314 32.5882H99.747L100.045 25.0981H117.652ZM124.516 46.2852C121.95 46.2852 120.02 45.6287 118.727 44.3157C117.454 42.9828 116.817 41.1426 116.817 38.7951C116.817 36.4278 117.534 34.6174 118.966 33.3641C120.418 32.1108 122.258 31.4841 124.487 31.4841C129.003 31.4841 131.171 33.752 130.992 38.2878H122.577V39.4516C122.577 41.4013 122.825 42.8734 123.323 43.8681C123.82 44.8628 124.686 45.3602 125.919 45.3602C128.227 45.3602 129.739 44.1267 130.455 41.6599L130.992 41.7494C130.614 43.1818 129.928 44.2958 128.933 45.0916C127.958 45.8873 126.486 46.2852 124.516 46.2852ZM122.607 37.691H125.68V36.2288C125.68 34.6174 125.581 33.5232 125.382 32.9463C125.203 32.3495 124.825 32.0511 124.248 32.0511C123.691 32.0511 123.273 32.3694 122.995 33.006C122.736 33.6227 122.607 34.697 122.607 36.2288V37.691ZM131.16 23.6061H138.351V34.5279C138.67 33.6128 139.157 32.8767 139.814 32.3197C140.47 31.7626 141.465 31.4841 142.798 31.4841C145.881 31.4841 147.423 33.1453 147.423 36.4675V45.4497H149.094V45.9868H140.649V45.4497H141.873V35.7514C141.873 34.5577 141.793 33.7918 141.634 33.4536C141.475 33.0955 141.186 32.9165 140.769 32.9165C140.132 32.9165 139.565 33.3342 139.068 34.1698C138.59 35.0053 138.351 36.0199 138.351 37.2136V45.4497H139.635V45.9868H131.16V45.4497H132.801V24.1432H131.16V23.6061ZM174.128 35.1844C174.128 39.2825 172.974 42.1373 170.666 43.7487C168.538 45.2408 165.613 45.9868 161.893 45.9868H153.448V45.4198H155.417V25.6651H153.448V25.0981H162.669C166.488 25.0981 169.353 25.884 171.263 27.4556C173.173 29.0073 174.128 31.5836 174.128 35.1844ZM161.236 45.4198H162.37C164.38 45.4198 165.812 44.7136 166.667 43.3011C167.543 41.8688 167.98 39.4815 167.98 36.1393V34.4085C167.98 29.9324 167.125 27.2367 165.414 26.3216C164.599 25.884 163.445 25.6651 161.953 25.6651H161.236V45.4198ZM182.599 46.2852C180.033 46.2852 178.103 45.6287 176.81 44.3157C175.537 42.9828 174.9 41.1426 174.9 38.7951C174.9 36.4278 175.616 34.6174 177.049 33.3641C178.501 32.1108 180.341 31.4841 182.569 31.4841C187.085 31.4841 189.254 33.752 189.075 38.2878H180.659V39.4516C180.659 41.4013 180.908 42.8734 181.405 43.8681C181.903 44.8628 182.768 45.3602 184.002 45.3602C186.309 45.3602 187.821 44.1267 188.537 41.6599L189.075 41.7494C188.697 43.1818 188.01 44.2958 187.016 45.0916C186.041 45.8873 184.569 46.2852 182.599 46.2852ZM180.689 37.691H183.763V36.2288C183.763 34.6174 183.663 33.5232 183.464 32.9463C183.285 32.3495 182.907 32.0511 182.33 32.0511C181.773 32.0511 181.356 32.3694 181.077 33.006C180.819 33.6227 180.689 34.697 180.689 36.2288V37.691ZM188.186 32.3197V31.7825H197.109V32.3197H195.229L198.81 42.2269L202.033 32.3197H200.033V31.7825H204.062V32.3197H202.749L198.332 45.9868H194.93L189.41 32.3197H188.186ZM210.562 46.2852C207.996 46.2852 206.066 45.6287 204.773 44.3157C203.5 42.9828 202.863 41.1426 202.863 38.7951C202.863 36.4278 203.579 34.6174 205.012 33.3641C206.464 32.1108 208.304 31.4841 210.532 31.4841C215.048 31.4841 217.217 33.752 217.038 38.2878H208.622V39.4516C208.622 41.4013 208.871 42.8734 209.368 43.8681C209.866 44.8628 210.731 45.3602 211.965 45.3602C214.272 45.3602 215.784 44.1267 216.5 41.6599L217.038 41.7494C216.66 43.1818 215.973 44.2958 214.979 45.0916C214.004 45.8873 212.532 46.2852 210.562 46.2852ZM208.652 37.691H211.726V36.2288C211.726 34.6174 211.626 33.5232 211.428 32.9463C211.248 32.3495 210.87 32.0511 210.294 32.0511C209.737 32.0511 209.319 32.3694 209.04 33.006C208.782 33.6227 208.652 34.697 208.652 36.2288V37.691ZM217.086 23.6061H224.397V45.4497H226.068V45.9868H217.205V45.4497H218.847V24.1432H217.086V23.6061ZM235.391 40.1081V37.5717C235.391 35.6419 235.281 34.2394 235.062 33.3641C234.864 32.4689 234.386 32.0212 233.63 32.0212C233.192 32.0212 232.834 32.1506 232.556 32.4092C232.297 32.6479 232.108 33.0557 231.989 33.6327C231.81 34.5279 231.72 35.8906 231.72 37.7209V40.0485C231.72 42.2169 231.78 43.52 231.899 43.9576C232.039 44.3953 232.178 44.7534 232.317 45.0319C232.536 45.5094 232.964 45.7481 233.6 45.7481C234.376 45.7481 234.883 45.3005 235.122 44.4052C235.301 43.7686 235.391 42.3363 235.391 40.1081ZM233.541 46.2852C231.054 46.2852 229.174 45.6486 227.901 44.3754C226.627 43.1022 225.991 41.2819 225.991 38.9145C225.991 36.5272 226.667 34.697 228.02 33.4238C229.393 32.1307 231.312 31.4841 233.779 31.4841C236.246 31.4841 238.086 32.0809 239.3 33.2746C240.513 34.4483 241.12 36.2487 241.12 38.6758C241.12 43.7487 238.594 46.2852 233.541 46.2852ZM251.952 37.9596C251.952 35.9105 251.852 34.5378 251.653 33.8415C251.454 33.1254 251.066 32.7673 250.489 32.7673C249.912 32.7673 249.395 33.1453 248.938 33.9012C248.48 34.6373 248.251 35.632 248.251 36.8853V42.3462C248.251 43.2017 248.42 43.9278 248.759 44.5246C249.097 45.1214 249.594 45.4198 250.251 45.4198C250.907 45.4198 251.355 44.9822 251.593 44.1068C251.832 43.2315 251.952 41.6997 251.952 39.5113V37.9596ZM248.192 31.7825V34.14C248.967 32.3694 250.34 31.4841 252.31 31.4841C254.021 31.4841 255.343 32.1008 256.278 33.3342C257.233 34.5677 257.711 36.4377 257.711 38.9443C257.711 41.451 257.194 43.3011 256.159 44.4948C255.145 45.6884 253.613 46.2852 251.564 46.2852C250.609 46.2852 249.893 46.1659 249.415 45.9271C248.938 45.6884 248.55 45.3204 248.251 44.823V52.5518H252.101V53.089H241.06V52.5518H242.701V32.3197H241.119V31.7825H248.192ZM265.556 46.2852C262.989 46.2852 261.06 45.6287 259.767 44.3157C258.493 42.9828 257.857 41.1426 257.857 38.7951C257.857 36.4278 258.573 34.6174 260.005 33.3641C261.458 32.1108 263.298 31.4841 265.526 31.4841C270.042 31.4841 272.21 33.752 272.031 38.2878H263.616V39.4516C263.616 41.4013 263.865 42.8734 264.362 43.8681C264.859 44.8628 265.725 45.3602 266.958 45.3602C269.266 45.3602 270.778 44.1267 271.494 41.6599L272.031 41.7494C271.653 43.1818 270.967 44.2958 269.972 45.0916C268.997 45.8873 267.525 46.2852 265.556 46.2852ZM263.646 37.691H266.72V36.2288C266.72 34.6174 266.62 33.5232 266.421 32.9463C266.242 32.3495 265.864 32.0511 265.287 32.0511C264.73 32.0511 264.312 32.3694 264.034 33.006C263.775 33.6227 263.646 34.697 263.646 36.2288V37.691ZM282.166 32.6181C281.43 32.6181 280.783 33.0955 280.226 34.0504C279.669 35.0053 279.391 36.1393 279.391 37.4523V45.4497H281.509V45.9868H272.199V45.4497H273.84V32.3197H272.199V31.7825H279.391V34.6473C279.649 33.6327 280.147 32.8568 280.883 32.3197C281.619 31.7626 282.454 31.4841 283.389 31.4841C284.324 31.4841 285.08 31.7527 285.657 32.2898C286.254 32.8071 286.553 33.5531 286.553 34.5279C286.553 35.4828 286.334 36.2189 285.896 36.7361C285.458 37.2534 284.782 37.512 283.867 37.512C282.972 37.512 282.305 37.2136 281.868 36.6168C281.45 36.0199 281.4 35.1943 281.718 34.14H282.793C283.29 33.1254 283.081 32.6181 282.166 32.6181ZM296.314 36.3183V36.7958C294.444 36.8356 293.509 37.9894 293.509 40.2574C293.509 41.0531 293.648 42.207 293.927 43.7189C294.225 45.211 294.374 46.1161 294.374 46.4344C294.374 49.3191 292.365 50.7614 288.347 50.7614C287.372 50.7614 286.516 50.6022 285.78 50.2839L285.929 49.8065C286.367 49.9656 286.835 50.0452 287.332 50.0452C288.446 50.0452 289.003 49.3787 289.003 48.0458C289.003 47.5087 288.864 46.2952 288.585 44.4052C288.307 42.4954 288.168 41.2322 288.168 40.6154C288.168 39.203 288.565 38.2083 289.361 37.6313C290.177 37.0345 291.47 36.6665 293.24 36.5272V36.4675C291.39 36.3681 290.077 36.0398 289.301 35.4828C288.546 34.9059 288.168 33.9311 288.168 32.5584C288.168 31.882 288.307 30.6585 288.585 28.8879C288.864 27.0975 289.003 25.9038 289.003 25.307C289.003 24.0139 288.466 23.3674 287.392 23.3674C287.014 23.3674 286.616 23.437 286.198 23.5763L286.049 23.0988C286.745 22.8402 287.66 22.7109 288.794 22.7109C292.514 22.7109 294.374 24.0736 294.374 26.7991C294.374 27.197 294.225 28.1021 293.927 29.5146C293.648 30.9072 293.509 32.0113 293.509 32.827C293.509 35.1148 294.444 36.2786 296.314 36.3183Z" fill="#302815"/>
</svg>
