<svg width="150" height="152" viewBox="0 0 150 152" fill="none" xmlns="http://www.w3.org/2000/svg">
<path d="M113.311 4.35059C114.744 3.62219 116.37 3.37044 117.957 3.63379C119.544 3.89709 121.001 4.66073 122.125 5.80664L122.124 5.80762C123.635 7.3381 125.283 10.3948 126.592 16.6777C127.92 23.0534 128.968 33.0968 128.968 49.001C128.968 62.7412 123.61 74.2201 114.019 82.2129C104.481 90.1604 91.0017 94.4677 75.0039 94.4678H74.9961C73.9785 94.4651 72.9727 94.2549 72.04 93.8496V93.8486C70.9891 93.3958 70.0239 92.5561 69.2334 91.7471C68.3746 90.8682 67.4666 89.7566 66.5547 88.4795C64.7278 85.921 62.7756 82.543 61.0791 78.6709C57.712 70.986 55.1758 60.9468 57.0449 51.2705C59.6823 37.574 69.5641 26.635 85.4912 18.5186H85.4922L113.309 4.35254L113.311 4.35059ZM32.0498 3.63379C33.5378 3.38687 35.0605 3.59263 36.4258 4.21973L36.6963 4.35059L36.6982 4.35254L64.5107 18.5166L64.8447 18.6973C66.4917 19.6391 67.7283 21.1643 68.3223 22.9697C68.9553 24.8942 68.8132 26.9956 67.9229 28.8164C67.0318 30.6387 65.4575 32.0427 63.5312 32.7002C61.6031 33.3583 59.4957 33.2084 57.6797 32.2871L57.6738 32.2832L37.9287 22.207C36.5021 31.022 35.9369 39.9631 36.2451 48.8984C36.2471 48.9557 36.2474 49.013 36.2461 49.0703C36.1087 54.9006 37.8121 60.6173 41.0977 65.3789C44.2801 69.9909 48.782 73.4681 53.9697 75.3467L54.4736 75.5234L54.583 75.5635C55.5306 75.9269 56.3942 76.4772 57.125 77.1797C57.8556 77.882 58.4391 78.7225 58.8438 79.6504C59.2484 80.5783 59.4668 81.5773 59.4883 82.5889C59.5097 83.6004 59.3344 84.6075 58.9697 85.5518C58.6051 86.4961 58.058 87.3605 57.3584 88.0938C56.6587 88.8271 55.8195 89.4147 54.8887 89.8193C53.9578 90.2239 52.955 90.4371 51.9395 90.4443C50.972 90.4512 50.0145 90.2685 49.1162 89.9131C40.7788 86.9664 33.579 81.4141 28.54 74.0596C23.5073 66.7142 20.8855 57.9444 21.0391 49.001L21.0508 46.0869C21.1708 31.8555 22.1697 22.655 23.415 16.6777C24.7239 10.3954 26.3712 7.33827 27.8818 5.80762V5.80664C29.0058 4.66073 30.4631 3.89709 32.0498 3.63379ZM92.3262 32.2598L92.3271 32.2607C80.0595 38.5108 73.6026 45.9478 71.9814 54.1143C71.6573 56.1453 71.5533 58.1957 71.666 60.2295C73.5964 55.6751 76.1652 51.4067 79.3105 47.5645C84.8072 40.85 91.8844 35.6526 99.8887 32.46C100.777 32.0761 101.73 31.8646 102.699 31.8418C103.714 31.818 104.723 31.9999 105.666 32.376C106.609 32.752 107.465 33.3136 108.187 34.0254C108.908 34.737 109.479 35.5848 109.872 36.5176C110.265 37.4504 110.471 38.4514 110.479 39.4629C110.488 40.4744 110.299 41.4786 109.923 42.418C109.546 43.3574 108.99 44.2153 108.281 44.9395C107.572 45.6638 106.726 46.2402 105.79 46.6328C105.776 46.6386 105.762 46.6448 105.748 46.6504C98.8367 49.4277 92.9017 54.2722 88.7295 60.5576C85.1496 65.9507 83.0145 72.1863 82.5078 78.6475C92.0463 77.5835 99.5596 74.4768 104.787 69.8877C110.537 64.8395 113.76 57.7994 113.76 49.001C113.76 48.967 113.761 48.9324 113.762 48.8984C114.069 39.9619 113.501 31.0201 112.072 22.2041L92.3262 32.2598Z" stroke="#80A867" stroke-width="5.9363" stroke-linejoin="round"/>
<mask id="path-2-outside-1_1422_252" maskUnits="userSpaceOnUse" x="8" y="114.5" width="134" height="15" fill="black">
<rect fill="white" x="8" y="114.5" width="134" height="15"/>
<path d="M18.9365 116.318V117.5H14.9082V128.5H13.6084V117.5H9.58008V116.318H18.9365ZM28.9053 116.318V117.5H22.0732V121.614H28.4971V122.796H22.0732V127.318H29.2061V128.5H20.7734V116.318H28.9053ZM32.3428 116.318V121.614H38.9707V116.318H40.2598V128.5H38.9707V122.764H32.3428V128.5H31.043V116.318H32.3428ZM47.4141 116.318H51.9258C52.7279 116.318 53.4512 116.479 54.0957 116.802C54.7474 117.124 55.3024 117.561 55.7607 118.112C56.2191 118.664 56.57 119.308 56.8135 120.046C57.057 120.776 57.1787 121.557 57.1787 122.388C57.1787 123.254 57.0498 124.06 56.792 124.805C56.5342 125.549 56.1725 126.198 55.707 126.749C55.2487 127.293 54.6973 127.723 54.0527 128.038C53.4082 128.346 52.6992 128.5 51.9258 128.5H47.4141V116.318ZM48.6924 127.318H51.4102C52.0547 127.318 52.6455 127.207 53.1826 126.985C53.7269 126.763 54.196 126.445 54.5898 126.029C54.9909 125.607 55.3024 125.091 55.5244 124.482C55.7464 123.874 55.8574 123.183 55.8574 122.409C55.8574 121.564 55.7428 120.834 55.5137 120.218C55.2917 119.602 54.9801 119.093 54.5791 118.692C54.1852 118.284 53.7161 117.983 53.1719 117.79C52.6348 117.597 52.0475 117.5 51.4102 117.5H48.6924V127.318ZM67.1475 116.318V117.5H60.3154V121.614H66.7393V122.796H60.3154V127.318H67.4482V128.5H59.0156V116.318H67.1475ZM73.1201 126.803L76.6113 116.318H78.0293L73.9688 128.5H72.3467L68.2109 116.318H69.6396L73.1201 126.803ZM87.3213 116.318V117.5H80.4893V121.614H86.9131V122.796H80.4893V127.318H87.6221V128.5H79.1895V116.318H87.3213ZM90.7588 116.318V127.318H96.8818V128.5H89.459V116.318H90.7588ZM109.644 122.42C109.644 123.358 109.522 124.221 109.278 125.009C109.035 125.789 108.68 126.463 108.215 127.028C107.749 127.594 107.176 128.035 106.496 128.35C105.823 128.665 105.049 128.822 104.176 128.822C103.302 128.822 102.525 128.665 101.845 128.35C101.172 128.035 100.602 127.594 100.137 127.028C99.6712 126.463 99.3167 125.789 99.0732 125.009C98.8369 124.221 98.7188 123.358 98.7188 122.42C98.7188 121.489 98.8369 120.633 99.0732 119.853C99.3167 119.065 99.6712 118.392 100.137 117.833C100.602 117.267 101.172 116.827 101.845 116.512C102.525 116.197 103.302 116.039 104.176 116.039C105.049 116.039 105.823 116.197 106.496 116.512C107.176 116.827 107.749 117.267 108.215 117.833C108.68 118.392 109.035 119.065 109.278 119.853C109.522 120.633 109.644 121.489 109.644 122.42ZM108.344 122.42C108.344 121.596 108.236 120.862 108.021 120.218C107.807 119.566 107.509 119.015 107.13 118.563C106.757 118.112 106.317 117.769 105.809 117.532C105.3 117.296 104.756 117.178 104.176 117.178C103.589 117.178 103.041 117.296 102.532 117.532C102.024 117.769 101.583 118.112 101.211 118.563C100.839 119.015 100.545 119.566 100.33 120.218C100.122 120.862 100.019 121.596 100.019 122.42C100.019 123.243 100.122 123.981 100.33 124.633C100.545 125.285 100.839 125.836 101.211 126.287C101.583 126.738 102.024 127.082 102.532 127.318C103.041 127.555 103.589 127.673 104.176 127.673C104.756 127.673 105.3 127.555 105.809 127.318C106.317 127.082 106.757 126.738 107.13 126.287C107.509 125.836 107.807 125.285 108.021 124.633C108.236 123.981 108.344 123.243 108.344 122.42ZM111.502 116.318H116.121C116.708 116.318 117.231 116.422 117.689 116.63C118.148 116.838 118.531 117.106 118.839 117.436C119.154 117.765 119.39 118.137 119.548 118.553C119.713 118.961 119.795 119.373 119.795 119.788C119.795 120.232 119.713 120.665 119.548 121.088C119.39 121.503 119.154 121.876 118.839 122.205C118.531 122.527 118.148 122.789 117.689 122.989C117.231 123.183 116.708 123.279 116.121 123.279H112.802V128.5H111.502V116.318ZM112.802 122.13H116.121C116.436 122.13 116.737 122.069 117.023 121.947C117.31 121.826 117.561 121.657 117.775 121.442C117.99 121.228 118.162 120.977 118.291 120.69C118.42 120.404 118.484 120.096 118.484 119.767C118.484 119.444 118.424 119.144 118.302 118.864C118.18 118.585 118.012 118.345 117.797 118.145C117.589 117.944 117.342 117.786 117.056 117.672C116.769 117.557 116.458 117.5 116.121 117.5H112.802V122.13ZM129.753 116.318V117.5H122.921V121.614H129.345V122.796H122.921V127.318H130.054V128.5H121.621V116.318H129.753ZM140.549 119.788C140.549 120.397 140.406 120.97 140.119 121.507C139.833 122.037 139.407 122.459 138.841 122.774C139.156 122.853 139.414 122.975 139.614 123.14C139.815 123.304 139.972 123.498 140.087 123.72C140.201 123.935 140.28 124.171 140.323 124.429C140.366 124.687 140.388 124.948 140.388 125.213V127.061C140.388 127.326 140.424 127.58 140.495 127.823C140.567 128.067 140.66 128.292 140.774 128.5H139.367C139.31 128.407 139.263 128.303 139.228 128.188C139.199 128.067 139.174 127.941 139.152 127.812C139.138 127.684 139.127 127.562 139.12 127.447C139.113 127.326 139.109 127.218 139.109 127.125V125.191C139.109 124.955 139.07 124.726 138.991 124.504C138.912 124.275 138.784 124.071 138.604 123.892C138.425 123.705 138.193 123.559 137.906 123.451C137.627 123.337 137.283 123.279 136.875 123.279H133.19V128.5H131.891V116.318H136.875C137.469 116.318 137.992 116.422 138.443 116.63C138.902 116.838 139.285 117.106 139.593 117.436C139.908 117.765 140.144 118.137 140.302 118.553C140.466 118.961 140.549 119.373 140.549 119.788ZM133.19 122.13H136.875C137.197 122.13 137.502 122.069 137.788 121.947C138.075 121.826 138.325 121.657 138.54 121.442C138.755 121.228 138.927 120.977 139.056 120.69C139.185 120.404 139.249 120.096 139.249 119.767C139.249 119.444 139.188 119.144 139.066 118.864C138.952 118.585 138.787 118.345 138.572 118.145C138.365 117.944 138.114 117.786 137.82 117.672C137.534 117.557 137.219 117.5 136.875 117.5H133.19V122.13Z"/>
</mask>
<path d="M18.9365 116.318V117.5H14.9082V128.5H13.6084V117.5H9.58008V116.318H18.9365ZM28.9053 116.318V117.5H22.0732V121.614H28.4971V122.796H22.0732V127.318H29.2061V128.5H20.7734V116.318H28.9053ZM32.3428 116.318V121.614H38.9707V116.318H40.2598V128.5H38.9707V122.764H32.3428V128.5H31.043V116.318H32.3428ZM47.4141 116.318H51.9258C52.7279 116.318 53.4512 116.479 54.0957 116.802C54.7474 117.124 55.3024 117.561 55.7607 118.112C56.2191 118.664 56.57 119.308 56.8135 120.046C57.057 120.776 57.1787 121.557 57.1787 122.388C57.1787 123.254 57.0498 124.06 56.792 124.805C56.5342 125.549 56.1725 126.198 55.707 126.749C55.2487 127.293 54.6973 127.723 54.0527 128.038C53.4082 128.346 52.6992 128.5 51.9258 128.5H47.4141V116.318ZM48.6924 127.318H51.4102C52.0547 127.318 52.6455 127.207 53.1826 126.985C53.7269 126.763 54.196 126.445 54.5898 126.029C54.9909 125.607 55.3024 125.091 55.5244 124.482C55.7464 123.874 55.8574 123.183 55.8574 122.409C55.8574 121.564 55.7428 120.834 55.5137 120.218C55.2917 119.602 54.9801 119.093 54.5791 118.692C54.1852 118.284 53.7161 117.983 53.1719 117.79C52.6348 117.597 52.0475 117.5 51.4102 117.5H48.6924V127.318ZM67.1475 116.318V117.5H60.3154V121.614H66.7393V122.796H60.3154V127.318H67.4482V128.5H59.0156V116.318H67.1475ZM73.1201 126.803L76.6113 116.318H78.0293L73.9688 128.5H72.3467L68.2109 116.318H69.6396L73.1201 126.803ZM87.3213 116.318V117.5H80.4893V121.614H86.9131V122.796H80.4893V127.318H87.6221V128.5H79.1895V116.318H87.3213ZM90.7588 116.318V127.318H96.8818V128.5H89.459V116.318H90.7588ZM109.644 122.42C109.644 123.358 109.522 124.221 109.278 125.009C109.035 125.789 108.68 126.463 108.215 127.028C107.749 127.594 107.176 128.035 106.496 128.35C105.823 128.665 105.049 128.822 104.176 128.822C103.302 128.822 102.525 128.665 101.845 128.35C101.172 128.035 100.602 127.594 100.137 127.028C99.6712 126.463 99.3167 125.789 99.0732 125.009C98.8369 124.221 98.7188 123.358 98.7188 122.42C98.7188 121.489 98.8369 120.633 99.0732 119.853C99.3167 119.065 99.6712 118.392 100.137 117.833C100.602 117.267 101.172 116.827 101.845 116.512C102.525 116.197 103.302 116.039 104.176 116.039C105.049 116.039 105.823 116.197 106.496 116.512C107.176 116.827 107.749 117.267 108.215 117.833C108.68 118.392 109.035 119.065 109.278 119.853C109.522 120.633 109.644 121.489 109.644 122.42ZM108.344 122.42C108.344 121.596 108.236 120.862 108.021 120.218C107.807 119.566 107.509 119.015 107.13 118.563C106.757 118.112 106.317 117.769 105.809 117.532C105.3 117.296 104.756 117.178 104.176 117.178C103.589 117.178 103.041 117.296 102.532 117.532C102.024 117.769 101.583 118.112 101.211 118.563C100.839 119.015 100.545 119.566 100.33 120.218C100.122 120.862 100.019 121.596 100.019 122.42C100.019 123.243 100.122 123.981 100.33 124.633C100.545 125.285 100.839 125.836 101.211 126.287C101.583 126.738 102.024 127.082 102.532 127.318C103.041 127.555 103.589 127.673 104.176 127.673C104.756 127.673 105.3 127.555 105.809 127.318C106.317 127.082 106.757 126.738 107.13 126.287C107.509 125.836 107.807 125.285 108.021 124.633C108.236 123.981 108.344 123.243 108.344 122.42ZM111.502 116.318H116.121C116.708 116.318 117.231 116.422 117.689 116.63C118.148 116.838 118.531 117.106 118.839 117.436C119.154 117.765 119.39 118.137 119.548 118.553C119.713 118.961 119.795 119.373 119.795 119.788C119.795 120.232 119.713 120.665 119.548 121.088C119.39 121.503 119.154 121.876 118.839 122.205C118.531 122.527 118.148 122.789 117.689 122.989C117.231 123.183 116.708 123.279 116.121 123.279H112.802V128.5H111.502V116.318ZM112.802 122.13H116.121C116.436 122.13 116.737 122.069 117.023 121.947C117.31 121.826 117.561 121.657 117.775 121.442C117.99 121.228 118.162 120.977 118.291 120.69C118.42 120.404 118.484 120.096 118.484 119.767C118.484 119.444 118.424 119.144 118.302 118.864C118.18 118.585 118.012 118.345 117.797 118.145C117.589 117.944 117.342 117.786 117.056 117.672C116.769 117.557 116.458 117.5 116.121 117.5H112.802V122.13ZM129.753 116.318V117.5H122.921V121.614H129.345V122.796H122.921V127.318H130.054V128.5H121.621V116.318H129.753ZM140.549 119.788C140.549 120.397 140.406 120.97 140.119 121.507C139.833 122.037 139.407 122.459 138.841 122.774C139.156 122.853 139.414 122.975 139.614 123.14C139.815 123.304 139.972 123.498 140.087 123.72C140.201 123.935 140.28 124.171 140.323 124.429C140.366 124.687 140.388 124.948 140.388 125.213V127.061C140.388 127.326 140.424 127.58 140.495 127.823C140.567 128.067 140.66 128.292 140.774 128.5H139.367C139.31 128.407 139.263 128.303 139.228 128.188C139.199 128.067 139.174 127.941 139.152 127.812C139.138 127.684 139.127 127.562 139.12 127.447C139.113 127.326 139.109 127.218 139.109 127.125V125.191C139.109 124.955 139.07 124.726 138.991 124.504C138.912 124.275 138.784 124.071 138.604 123.892C138.425 123.705 138.193 123.559 137.906 123.451C137.627 123.337 137.283 123.279 136.875 123.279H133.19V128.5H131.891V116.318H136.875C137.469 116.318 137.992 116.422 138.443 116.63C138.902 116.838 139.285 117.106 139.593 117.436C139.908 117.765 140.144 118.137 140.302 118.553C140.466 118.961 140.549 119.373 140.549 119.788ZM133.19 122.13H136.875C137.197 122.13 137.502 122.069 137.788 121.947C138.075 121.826 138.325 121.657 138.54 121.442C138.755 121.228 138.927 120.977 139.056 120.69C139.185 120.404 139.249 120.096 139.249 119.767C139.249 119.444 139.188 119.144 139.066 118.864C138.952 118.585 138.787 118.345 138.572 118.145C138.365 117.944 138.114 117.786 137.82 117.672C137.534 117.557 137.219 117.5 136.875 117.5H133.19V122.13Z" fill="#363636"/>
<path d="M18.9365 116.318H19.5365V115.718H18.9365V116.318ZM18.9365 117.5V118.1H19.5365V117.5H18.9365ZM14.9082 117.5V116.9H14.3082V117.5H14.9082ZM14.9082 128.5V129.1H15.5082V128.5H14.9082ZM13.6084 128.5H13.0084V129.1H13.6084V128.5ZM13.6084 117.5H14.2084V116.9H13.6084V117.5ZM9.58008 117.5H8.98008V118.1H9.58008V117.5ZM9.58008 116.318V115.718H8.98008V116.318H9.58008ZM18.9365 116.318H18.3365V117.5H18.9365H19.5365V116.318H18.9365ZM18.9365 117.5V116.9H14.9082V117.5V118.1H18.9365V117.5ZM14.9082 117.5H14.3082V128.5H14.9082H15.5082V117.5H14.9082ZM14.9082 128.5V127.9H13.6084V128.5V129.1H14.9082V128.5ZM13.6084 128.5H14.2084V117.5H13.6084H13.0084V128.5H13.6084ZM13.6084 117.5V116.9H9.58008V117.5V118.1H13.6084V117.5ZM9.58008 117.5H10.1801V116.318H9.58008H8.98008V117.5H9.58008ZM9.58008 116.318V116.918H18.9365V116.318V115.718H9.58008V116.318ZM28.9053 116.318H29.5053V115.718H28.9053V116.318ZM28.9053 117.5V118.1H29.5053V117.5H28.9053ZM22.0732 117.5V116.9H21.4732V117.5H22.0732ZM22.0732 121.614H21.4732V122.214H22.0732V121.614ZM28.4971 121.614H29.0971V121.014H28.4971V121.614ZM28.4971 122.796V123.396H29.0971V122.796H28.4971ZM22.0732 122.796V122.196H21.4732V122.796H22.0732ZM22.0732 127.318H21.4732V127.918H22.0732V127.318ZM29.2061 127.318H29.8061V126.718H29.2061V127.318ZM29.2061 128.5V129.1H29.8061V128.5H29.2061ZM20.7734 128.5H20.1734V129.1H20.7734V128.5ZM20.7734 116.318V115.718H20.1734V116.318H20.7734ZM28.9053 116.318H28.3053V117.5H28.9053H29.5053V116.318H28.9053ZM28.9053 117.5V116.9H22.0732V117.5V118.1H28.9053V117.5ZM22.0732 117.5H21.4732V121.614H22.0732H22.6732V117.5H22.0732ZM22.0732 121.614V122.214H28.4971V121.614V121.014H22.0732V121.614ZM28.4971 121.614H27.8971V122.796H28.4971H29.0971V121.614H28.4971ZM28.4971 122.796V122.196H22.0732V122.796V123.396H28.4971V122.796ZM22.0732 122.796H21.4732V127.318H22.0732H22.6732V122.796H22.0732ZM22.0732 127.318V127.918H29.2061V127.318V126.718H22.0732V127.318ZM29.2061 127.318H28.6061V128.5H29.2061H29.8061V127.318H29.2061ZM29.2061 128.5V127.9H20.7734V128.5V129.1H29.2061V128.5ZM20.7734 128.5H21.3734V116.318H20.7734H20.1734V128.5H20.7734ZM20.7734 116.318V116.918H28.9053V116.318V115.718H20.7734V116.318ZM32.3428 116.318H32.9428V115.718H32.3428V116.318ZM32.3428 121.614H31.7428V122.214H32.3428V121.614ZM38.9707 121.614V122.214H39.5707V121.614H38.9707ZM38.9707 116.318V115.718H38.3707V116.318H38.9707ZM40.2598 116.318H40.8598V115.718H40.2598V116.318ZM40.2598 128.5V129.1H40.8598V128.5H40.2598ZM38.9707 128.5H38.3707V129.1H38.9707V128.5ZM38.9707 122.764H39.5707V122.164H38.9707V122.764ZM32.3428 122.764V122.164H31.7428V122.764H32.3428ZM32.3428 128.5V129.1H32.9428V128.5H32.3428ZM31.043 128.5H30.443V129.1H31.043V128.5ZM31.043 116.318V115.718H30.443V116.318H31.043ZM32.3428 116.318H31.7428V121.614H32.3428H32.9428V116.318H32.3428ZM32.3428 121.614V122.214H38.9707V121.614V121.014H32.3428V121.614ZM38.9707 121.614H39.5707V116.318H38.9707H38.3707V121.614H38.9707ZM38.9707 116.318V116.918H40.2598V116.318V115.718H38.9707V116.318ZM40.2598 116.318H39.6598V128.5H40.2598H40.8598V116.318H40.2598ZM40.2598 128.5V127.9H38.9707V128.5V129.1H40.2598V128.5ZM38.9707 128.5H39.5707V122.764H38.9707H38.3707V128.5H38.9707ZM38.9707 122.764V122.164H32.3428V122.764V123.364H38.9707V122.764ZM32.3428 122.764H31.7428V128.5H32.3428H32.9428V122.764H32.3428ZM32.3428 128.5V127.9H31.043V128.5V129.1H32.3428V128.5ZM31.043 128.5H31.643V116.318H31.043H30.443V128.5H31.043ZM31.043 116.318V116.918H32.3428V116.318V115.718H31.043V116.318ZM47.4141 116.318V115.718H46.8141V116.318H47.4141ZM54.0957 116.802L53.8274 117.338L53.8297 117.34L54.0957 116.802ZM56.8135 120.046L56.2437 120.234L56.2443 120.236L56.8135 120.046ZM56.792 124.805L56.225 124.608L56.225 124.608L56.792 124.805ZM55.707 126.749L55.2485 126.362L55.2481 126.363L55.707 126.749ZM54.0527 128.038L54.3114 128.579L54.3163 128.577L54.0527 128.038ZM47.4141 128.5H46.8141V129.1H47.4141V128.5ZM48.6924 127.318H48.0924V127.918H48.6924V127.318ZM53.1826 126.985L52.956 126.43L52.9534 126.431L53.1826 126.985ZM54.5898 126.029L54.1547 125.616L54.1545 125.616L54.5898 126.029ZM55.5137 120.218L54.9492 120.421L54.9513 120.427L55.5137 120.218ZM54.5791 118.692L54.1473 119.109L54.1548 119.117L54.5791 118.692ZM53.1719 117.79L52.9686 118.355L52.971 118.355L53.1719 117.79ZM48.6924 117.5V116.9H48.0924V117.5H48.6924ZM47.4141 116.318V116.918H51.9258V116.318V115.718H47.4141V116.318ZM51.9258 116.318V116.918C52.6454 116.918 53.2752 117.062 53.8274 117.338L54.0957 116.802L54.364 116.265C53.6271 115.897 52.8104 115.718 51.9258 115.718V116.318ZM54.0957 116.802L53.8297 117.34C54.4073 117.625 54.8954 118.01 55.2993 118.496L55.7607 118.112L56.2222 117.729C55.7094 117.112 55.0875 116.623 54.3617 116.264L54.0957 116.802ZM55.7607 118.112L55.2993 118.496C55.7058 118.985 56.0218 119.562 56.2437 120.234L56.8135 120.046L57.3832 119.858C57.1182 119.055 56.7324 118.343 56.2222 117.729L55.7607 118.112ZM56.8135 120.046L56.2443 120.236C56.4658 120.9 56.5787 121.616 56.5787 122.388H57.1787H57.7787C57.7787 121.498 57.6481 120.652 57.3827 119.856L56.8135 120.046ZM57.1787 122.388H56.5787C56.5787 123.194 56.4589 123.933 56.225 124.608L56.792 124.805L57.359 125.001C57.6407 124.187 57.7787 123.314 57.7787 122.388H57.1787ZM56.792 124.805L56.225 124.608C55.9891 125.29 55.6622 125.872 55.2485 126.362L55.707 126.749L56.1655 127.136C56.6828 126.523 57.0793 125.809 57.359 125.001L56.792 124.805ZM55.707 126.749L55.2481 126.363C54.844 126.842 54.3593 127.22 53.7892 127.499L54.0527 128.038L54.3163 128.577C55.0352 128.226 55.6534 127.744 56.166 127.136L55.707 126.749ZM54.0527 128.038L53.7941 127.497C53.2368 127.763 52.6172 127.9 51.9258 127.9V128.5V129.1C52.7812 129.1 53.5796 128.929 54.3114 128.579L54.0527 128.038ZM51.9258 128.5V127.9H47.4141V128.5V129.1H51.9258V128.5ZM47.4141 128.5H48.0141V116.318H47.4141H46.8141V128.5H47.4141ZM48.6924 127.318V127.918H51.4102V127.318V126.718H48.6924V127.318ZM51.4102 127.318V127.918C52.1247 127.918 52.7945 127.795 53.4118 127.54L53.1826 126.985L52.9534 126.431C52.4965 126.62 51.9846 126.718 51.4102 126.718V127.318ZM53.1826 126.985L53.4092 127.541C54.0303 127.288 54.5711 126.921 55.0252 126.442L54.5898 126.029L54.1545 125.616C53.8208 125.968 53.4235 126.239 52.956 126.43L53.1826 126.985ZM54.5898 126.029L55.025 126.442C55.4887 125.954 55.8411 125.365 56.0881 124.688L55.5244 124.482L54.9607 124.277C54.7637 124.817 54.4931 125.26 54.1547 125.616L54.5898 126.029ZM55.5244 124.482L56.0881 124.688C56.3383 124.002 56.4574 123.24 56.4574 122.409H55.8574H55.2574C55.2574 123.126 55.1546 123.745 54.9607 124.277L55.5244 124.482ZM55.8574 122.409H56.4574C56.4574 121.512 56.3361 120.707 56.076 120.009L55.5137 120.218L54.9513 120.427C55.1496 120.96 55.2574 121.616 55.2574 122.409H55.8574ZM55.5137 120.218L56.0781 120.014C55.8308 119.328 55.4757 118.74 55.0034 118.268L54.5791 118.692L54.1548 119.117C54.4845 119.446 54.7525 119.876 54.9492 120.421L55.5137 120.218ZM54.5791 118.692L55.0109 118.276C54.5514 117.8 54.0028 117.448 53.3727 117.225L53.1719 117.79L52.971 118.355C53.4295 118.518 53.8191 118.769 54.1473 119.109L54.5791 118.692ZM53.1719 117.79L53.3751 117.226C52.7657 117.006 52.1088 116.9 51.4102 116.9V117.5V118.1C51.9863 118.1 52.5039 118.187 52.9686 118.355L53.1719 117.79ZM51.4102 117.5V116.9H48.6924V117.5V118.1H51.4102V117.5ZM48.6924 117.5H48.0924V127.318H48.6924H49.2924V117.5H48.6924ZM67.1475 116.318H67.7475V115.718H67.1475V116.318ZM67.1475 117.5V118.1H67.7475V117.5H67.1475ZM60.3154 117.5V116.9H59.7154V117.5H60.3154ZM60.3154 121.614H59.7154V122.214H60.3154V121.614ZM66.7393 121.614H67.3393V121.014H66.7393V121.614ZM66.7393 122.796V123.396H67.3393V122.796H66.7393ZM60.3154 122.796V122.196H59.7154V122.796H60.3154ZM60.3154 127.318H59.7154V127.918H60.3154V127.318ZM67.4482 127.318H68.0482V126.718H67.4482V127.318ZM67.4482 128.5V129.1H68.0482V128.5H67.4482ZM59.0156 128.5H58.4156V129.1H59.0156V128.5ZM59.0156 116.318V115.718H58.4156V116.318H59.0156ZM67.1475 116.318H66.5475V117.5H67.1475H67.7475V116.318H67.1475ZM67.1475 117.5V116.9H60.3154V117.5V118.1H67.1475V117.5ZM60.3154 117.5H59.7154V121.614H60.3154H60.9154V117.5H60.3154ZM60.3154 121.614V122.214H66.7393V121.614V121.014H60.3154V121.614ZM66.7393 121.614H66.1393V122.796H66.7393H67.3393V121.614H66.7393ZM66.7393 122.796V122.196H60.3154V122.796V123.396H66.7393V122.796ZM60.3154 122.796H59.7154V127.318H60.3154H60.9154V122.796H60.3154ZM60.3154 127.318V127.918H67.4482V127.318V126.718H60.3154V127.318ZM67.4482 127.318H66.8482V128.5H67.4482H68.0482V127.318H67.4482ZM67.4482 128.5V127.9H59.0156V128.5V129.1H67.4482V128.5ZM59.0156 128.5H59.6156V116.318H59.0156H58.4156V128.5H59.0156ZM59.0156 116.318V116.918H67.1475V116.318V115.718H59.0156V116.318ZM73.1201 126.803L72.5507 126.992L73.1192 128.704L73.6894 126.992L73.1201 126.803ZM76.6113 116.318V115.718H76.1787L76.0421 116.129L76.6113 116.318ZM78.0293 116.318L78.5985 116.508L78.8618 115.718H78.0293V116.318ZM73.9688 128.5V129.1H74.4012L74.538 128.69L73.9688 128.5ZM72.3467 128.5L71.7785 128.693L71.9167 129.1H72.3467V128.5ZM68.2109 116.318V115.718H67.3736L67.6428 116.511L68.2109 116.318ZM69.6396 116.318L70.2091 116.129L70.0727 115.718H69.6396V116.318ZM73.1201 126.803L73.6894 126.992L77.1806 116.508L76.6113 116.318L76.0421 116.129L72.5508 126.613L73.1201 126.803ZM76.6113 116.318V116.918H78.0293V116.318V115.718H76.6113V116.318ZM78.0293 116.318L77.4601 116.129L73.3995 128.31L73.9688 128.5L74.538 128.69L78.5985 116.508L78.0293 116.318ZM73.9688 128.5V127.9H72.3467V128.5V129.1H73.9688V128.5ZM72.3467 128.5L72.9148 128.307L68.7791 116.125L68.2109 116.318L67.6428 116.511L71.7785 128.693L72.3467 128.5ZM68.2109 116.318V116.918H69.6396V116.318V115.718H68.2109V116.318ZM69.6396 116.318L69.0702 116.507L72.5507 126.992L73.1201 126.803L73.6896 126.614L70.2091 116.129L69.6396 116.318ZM87.3213 116.318H87.9213V115.718H87.3213V116.318ZM87.3213 117.5V118.1H87.9213V117.5H87.3213ZM80.4893 117.5V116.9H79.8893V117.5H80.4893ZM80.4893 121.614H79.8893V122.214H80.4893V121.614ZM86.9131 121.614H87.5131V121.014H86.9131V121.614ZM86.9131 122.796V123.396H87.5131V122.796H86.9131ZM80.4893 122.796V122.196H79.8893V122.796H80.4893ZM80.4893 127.318H79.8893V127.918H80.4893V127.318ZM87.6221 127.318H88.2221V126.718H87.6221V127.318ZM87.6221 128.5V129.1H88.2221V128.5H87.6221ZM79.1895 128.5H78.5895V129.1H79.1895V128.5ZM79.1895 116.318V115.718H78.5895V116.318H79.1895ZM87.3213 116.318H86.7213V117.5H87.3213H87.9213V116.318H87.3213ZM87.3213 117.5V116.9H80.4893V117.5V118.1H87.3213V117.5ZM80.4893 117.5H79.8893V121.614H80.4893H81.0893V117.5H80.4893ZM80.4893 121.614V122.214H86.9131V121.614V121.014H80.4893V121.614ZM86.9131 121.614H86.3131V122.796H86.9131H87.5131V121.614H86.9131ZM86.9131 122.796V122.196H80.4893V122.796V123.396H86.9131V122.796ZM80.4893 122.796H79.8893V127.318H80.4893H81.0893V122.796H80.4893ZM80.4893 127.318V127.918H87.6221V127.318V126.718H80.4893V127.318ZM87.6221 127.318H87.0221V128.5H87.6221H88.2221V127.318H87.6221ZM87.6221 128.5V127.9H79.1895V128.5V129.1H87.6221V128.5ZM79.1895 128.5H79.7895V116.318H79.1895H78.5895V128.5H79.1895ZM79.1895 116.318V116.918H87.3213V116.318V115.718H79.1895V116.318ZM90.7588 116.318H91.3588V115.718H90.7588V116.318ZM90.7588 127.318H90.1588V127.918H90.7588V127.318ZM96.8818 127.318H97.4818V126.718H96.8818V127.318ZM96.8818 128.5V129.1H97.4818V128.5H96.8818ZM89.459 128.5H88.859V129.1H89.459V128.5ZM89.459 116.318V115.718H88.859V116.318H89.459ZM90.7588 116.318H90.1588V127.318H90.7588H91.3588V116.318H90.7588ZM90.7588 127.318V127.918H96.8818V127.318V126.718H90.7588V127.318ZM96.8818 127.318H96.2818V128.5H96.8818H97.4818V127.318H96.8818ZM96.8818 128.5V127.9H89.459V128.5V129.1H96.8818V128.5ZM89.459 128.5H90.059V116.318H89.459H88.859V128.5H89.459ZM89.459 116.318V116.918H90.7588V116.318V115.718H89.459V116.318ZM109.278 125.009L109.851 125.187L109.852 125.186L109.278 125.009ZM108.215 127.028L108.678 127.41L108.215 127.028ZM106.496 128.35L106.244 127.805L106.242 127.806L106.496 128.35ZM101.845 128.35L101.59 128.893L101.593 128.894L101.845 128.35ZM99.0732 125.009L98.4985 125.181L98.5005 125.187L99.0732 125.009ZM99.0732 119.853L98.5 119.675L98.499 119.679L99.0732 119.853ZM100.137 117.833L100.598 118.217L100.6 118.214L100.137 117.833ZM101.845 116.512L101.593 115.967L101.59 115.968L101.845 116.512ZM106.496 116.512L106.242 117.055L106.244 117.056L106.496 116.512ZM108.215 117.833L107.752 118.214L107.754 118.217L108.215 117.833ZM109.278 119.853L108.705 120.03L108.706 120.031L109.278 119.853ZM108.021 120.218L107.452 120.406L107.452 120.408L108.021 120.218ZM107.13 118.563L106.667 118.945L106.671 118.95L107.13 118.563ZM105.809 117.532L105.556 118.076L105.809 117.532ZM100.33 120.218L99.7602 120.03L99.759 120.034L100.33 120.218ZM100.33 124.633L99.7584 124.815L99.7602 124.821L100.33 124.633ZM105.809 127.318L105.556 126.774L105.809 127.318ZM107.13 126.287L106.671 125.901L106.667 125.905L107.13 126.287ZM109.644 122.42H109.044C109.044 123.306 108.929 124.109 108.705 124.832L109.278 125.009L109.852 125.186C110.115 124.334 110.244 123.41 110.244 122.42H109.644ZM109.278 125.009L108.706 124.83C108.482 125.545 108.162 126.148 107.752 126.647L108.215 127.028L108.678 127.41C109.198 126.777 109.587 126.033 109.851 125.187L109.278 125.009ZM108.215 127.028L107.752 126.647C107.345 127.142 106.844 127.527 106.244 127.805L106.496 128.35L106.748 128.894C107.508 128.542 108.154 128.047 108.678 127.41L108.215 127.028ZM106.496 128.35L106.242 127.806C105.661 128.078 104.977 128.222 104.176 128.222V128.822V129.422C105.122 129.422 105.985 129.251 106.75 128.893L106.496 128.35ZM104.176 128.822V128.222C103.375 128.222 102.686 128.078 102.097 127.805L101.845 128.35L101.593 128.894C102.364 129.251 103.229 129.422 104.176 129.422V128.822ZM101.845 128.35L102.099 127.806C101.506 127.528 101.008 127.143 100.6 126.647L100.137 127.028L99.6734 127.41C100.196 128.045 100.838 128.541 101.59 128.893L101.845 128.35ZM100.137 127.028L100.6 126.647C100.189 126.148 99.8691 125.545 99.646 124.83L99.0732 125.009L98.5005 125.187C98.7643 126.033 99.1533 126.777 99.6734 127.41L100.137 127.028ZM99.0732 125.009L99.6479 124.836C99.4306 124.112 99.3188 123.308 99.3188 122.42H98.7188H98.1187C98.1187 123.408 98.2433 124.33 98.4985 125.181L99.0732 125.009ZM98.7188 122.42H99.3188C99.3188 121.54 99.4305 120.743 99.6475 120.026L99.0732 119.853L98.499 119.679C98.2434 120.523 98.1187 121.438 98.1187 122.42H98.7188ZM99.0732 119.853L99.6465 120.03C99.8697 119.308 100.189 118.707 100.598 118.217L100.137 117.833L99.6758 117.449C99.1532 118.076 98.7638 118.822 98.5 119.675L99.0732 119.853ZM100.137 117.833L100.6 118.214C101.008 117.718 101.506 117.333 102.099 117.055L101.845 116.512L101.59 115.968C100.838 116.321 100.196 116.816 99.6734 117.452L100.137 117.833ZM101.845 116.512L102.097 117.056C102.686 116.783 103.375 116.639 104.176 116.639V116.039V115.439C103.229 115.439 102.364 115.61 101.593 115.967L101.845 116.512ZM104.176 116.039V116.639C104.977 116.639 105.661 116.783 106.242 117.055L106.496 116.512L106.75 115.968C105.985 115.61 105.122 115.439 104.176 115.439V116.039ZM106.496 116.512L106.244 117.056C106.844 117.334 107.345 117.72 107.752 118.214L108.215 117.833L108.678 117.452C108.154 116.815 107.508 116.319 106.748 115.967L106.496 116.512ZM108.215 117.833L107.754 118.217C108.162 118.707 108.482 119.308 108.705 120.03L109.278 119.853L109.852 119.675C109.588 118.822 109.198 118.076 108.676 117.449L108.215 117.833ZM109.278 119.853L108.706 120.031C108.929 120.747 109.044 121.541 109.044 122.42H109.644H110.244C110.244 121.437 110.115 120.52 109.851 119.674L109.278 119.853ZM108.344 122.42H108.944C108.944 121.545 108.83 120.745 108.591 120.028L108.021 120.218L107.452 120.408C107.643 120.979 107.744 121.648 107.744 122.42H108.344ZM108.021 120.218L108.591 120.03C108.356 119.317 108.025 118.696 107.589 118.177L107.13 118.563L106.671 118.95C106.994 119.334 107.257 119.815 107.452 120.406L108.021 120.218ZM107.13 118.563L107.593 118.182C107.166 117.664 106.655 117.264 106.061 116.988L105.809 117.532L105.556 118.076C105.979 118.273 106.349 118.56 106.667 118.945L107.13 118.563ZM105.809 117.532L106.061 116.988C105.471 116.714 104.84 116.578 104.176 116.578V117.178V117.778C104.672 117.778 105.129 117.878 105.556 118.076L105.809 117.532ZM104.176 117.178V116.578C103.505 116.578 102.871 116.713 102.279 116.988L102.532 117.532L102.785 118.076C103.211 117.879 103.672 117.778 104.176 117.778V117.178ZM102.532 117.532L102.279 116.988C101.686 117.264 101.175 117.664 100.748 118.182L101.211 118.563L101.674 118.945C101.992 118.56 102.361 118.273 102.785 118.076L102.532 117.532ZM101.211 118.563L100.748 118.182C100.321 118.699 99.9945 119.319 99.7602 120.03L100.33 120.218L100.9 120.406C101.095 119.813 101.356 119.33 101.674 118.945L101.211 118.563ZM100.33 120.218L99.759 120.034C99.5285 120.749 99.4186 121.547 99.4186 122.42H100.019H100.619C100.619 121.646 100.716 120.976 100.901 120.402L100.33 120.218ZM100.019 122.42H99.4186C99.4186 123.293 99.5286 124.094 99.7584 124.815L100.33 124.633L100.902 124.451C100.716 123.868 100.619 123.194 100.619 122.42H100.019ZM100.33 124.633L99.7602 124.821C99.9945 125.531 100.321 126.151 100.748 126.669L101.211 126.287L101.674 125.905C101.356 125.52 101.095 125.038 100.9 124.445L100.33 124.633ZM101.211 126.287L100.748 126.669C101.175 127.186 101.686 127.587 102.279 127.862L102.532 127.318L102.785 126.774C102.361 126.577 101.992 126.29 101.674 125.905L101.211 126.287ZM102.532 127.318L102.279 127.862C102.871 128.137 103.505 128.273 104.176 128.273V127.673V127.073C103.672 127.073 103.211 126.972 102.785 126.774L102.532 127.318ZM104.176 127.673V128.273C104.84 128.273 105.471 128.137 106.061 127.862L105.809 127.318L105.556 126.774C105.129 126.972 104.672 127.073 104.176 127.073V127.673ZM105.809 127.318L106.061 127.862C106.655 127.587 107.166 127.186 107.593 126.669L107.13 126.287L106.667 125.905C106.349 126.29 105.979 126.577 105.556 126.774L105.809 127.318ZM107.13 126.287L107.589 126.673C108.025 126.155 108.356 125.533 108.591 124.821L108.021 124.633L107.452 124.445C107.257 125.036 106.994 125.517 106.671 125.901L107.13 126.287ZM108.021 124.633L108.591 124.821C108.83 124.098 108.944 123.295 108.944 122.42H108.344H107.744C107.744 123.192 107.643 123.865 107.452 124.445L108.021 124.633ZM111.502 116.318V115.718H110.902V116.318H111.502ZM118.839 117.436L118.401 117.845L118.405 117.85L118.839 117.436ZM119.548 118.553L118.987 118.766L118.991 118.777L119.548 118.553ZM119.548 121.088L118.989 120.87L118.987 120.875L119.548 121.088ZM118.839 122.205L118.405 121.79L118.405 121.791L118.839 122.205ZM117.689 122.989L117.923 123.542L117.93 123.539L117.689 122.989ZM112.802 123.279V122.679H112.202V123.279H112.802ZM112.802 128.5V129.1H113.402V128.5H112.802ZM111.502 128.5H110.902V129.1H111.502V128.5ZM112.802 122.13H112.202V122.73H112.802V122.13ZM118.291 120.69L117.744 120.444L118.291 120.69ZM117.797 118.145L117.38 118.576L117.387 118.583L117.797 118.145ZM112.802 117.5V116.9H112.202V117.5H112.802ZM111.502 116.318V116.918H116.121V116.318V115.718H111.502V116.318ZM116.121 116.318V116.918C116.637 116.918 117.073 117.009 117.442 117.176L117.689 116.63L117.937 116.083C117.389 115.835 116.78 115.718 116.121 115.718V116.318ZM117.689 116.63L117.442 117.176C117.837 117.355 118.152 117.58 118.401 117.845L118.839 117.436L119.277 117.026C118.909 116.632 118.459 116.32 117.937 116.083L117.689 116.63ZM118.839 117.436L118.405 117.85C118.666 118.123 118.859 118.427 118.987 118.766L119.548 118.553L120.109 118.34C119.922 117.847 119.642 117.407 119.272 117.021L118.839 117.436ZM119.548 118.553L118.991 118.777C119.129 119.118 119.195 119.454 119.195 119.788H119.795H120.395C120.395 119.291 120.296 118.803 120.104 118.328L119.548 118.553ZM119.795 119.788H119.195C119.195 120.156 119.127 120.515 118.989 120.87L119.548 121.088L120.107 121.306C120.298 120.815 120.395 120.308 120.395 119.788H119.795ZM119.548 121.088L118.987 120.875C118.859 121.213 118.666 121.517 118.405 121.79L118.839 122.205L119.272 122.62C119.642 122.234 119.922 121.793 120.109 121.301L119.548 121.088ZM118.839 122.205L118.405 121.791C118.158 122.049 117.843 122.267 117.449 122.44L117.689 122.989L117.93 123.539C118.452 123.31 118.904 123.006 119.273 122.62L118.839 122.205ZM117.689 122.989L117.456 122.436C117.084 122.594 116.642 122.679 116.121 122.679V123.279V123.879C116.774 123.879 117.378 123.772 117.923 123.542L117.689 122.989ZM116.121 123.279V122.679H112.802V123.279V123.879H116.121V123.279ZM112.802 123.279H112.202V128.5H112.802H113.402V123.279H112.802ZM112.802 128.5V127.9H111.502V128.5V129.1H112.802V128.5ZM111.502 128.5H112.102V116.318H111.502H110.902V128.5H111.502ZM112.802 122.13V122.73H116.121V122.13V121.53H112.802V122.13ZM116.121 122.13V122.73C116.516 122.73 116.897 122.653 117.258 122.499L117.023 121.947L116.789 121.395C116.577 121.485 116.357 121.53 116.121 121.53V122.13ZM117.023 121.947L117.258 122.499C117.614 122.348 117.929 122.137 118.2 121.867L117.775 121.442L117.351 121.018C117.192 121.177 117.006 121.303 116.789 121.395L117.023 121.947ZM117.775 121.442L118.2 121.867C118.468 121.599 118.68 121.287 118.838 120.937L118.291 120.69L117.744 120.444C117.644 120.667 117.513 120.856 117.351 121.018L117.775 121.442ZM118.291 120.69L118.838 120.937C119.004 120.569 119.084 120.177 119.084 119.767H118.484H117.884C117.884 120.015 117.836 120.239 117.744 120.444L118.291 120.69ZM118.484 119.767H119.084C119.084 119.367 119.008 118.984 118.852 118.625L118.302 118.864L117.752 119.104C117.839 119.303 117.884 119.522 117.884 119.767H118.484ZM118.302 118.864L118.852 118.625C118.698 118.273 118.483 117.964 118.206 117.706L117.797 118.145L117.387 118.583C117.54 118.726 117.662 118.897 117.752 119.104L118.302 118.864ZM117.797 118.145L118.214 117.713C117.946 117.455 117.632 117.256 117.278 117.115L117.056 117.672L116.833 118.229C117.052 118.317 117.232 118.433 117.38 118.576L117.797 118.145ZM117.056 117.672L117.278 117.115C116.915 116.969 116.527 116.9 116.121 116.9V117.5V118.1C116.388 118.1 116.623 118.145 116.833 118.229L117.056 117.672ZM116.121 117.5V116.9H112.802V117.5V118.1H116.121V117.5ZM112.802 117.5H112.202V122.13H112.802H113.402V117.5H112.802ZM129.753 116.318H130.353V115.718H129.753V116.318ZM129.753 117.5V118.1H130.353V117.5H129.753ZM122.921 117.5V116.9H122.321V117.5H122.921ZM122.921 121.614H122.321V122.214H122.921V121.614ZM129.345 121.614H129.945V121.014H129.345V121.614ZM129.345 122.796V123.396H129.945V122.796H129.345ZM122.921 122.796V122.196H122.321V122.796H122.921ZM122.921 127.318H122.321V127.918H122.921V127.318ZM130.054 127.318H130.654V126.718H130.054V127.318ZM130.054 128.5V129.1H130.654V128.5H130.054ZM121.621 128.5H121.021V129.1H121.621V128.5ZM121.621 116.318V115.718H121.021V116.318H121.621ZM129.753 116.318H129.153V117.5H129.753H130.353V116.318H129.753ZM129.753 117.5V116.9H122.921V117.5V118.1H129.753V117.5ZM122.921 117.5H122.321V121.614H122.921H123.521V117.5H122.921ZM122.921 121.614V122.214H129.345V121.614V121.014H122.921V121.614ZM129.345 121.614H128.745V122.796H129.345H129.945V121.614H129.345ZM129.345 122.796V122.196H122.921V122.796V123.396H129.345V122.796ZM122.921 122.796H122.321V127.318H122.921H123.521V122.796H122.921ZM122.921 127.318V127.918H130.054V127.318V126.718H122.921V127.318ZM130.054 127.318H129.454V128.5H130.054H130.654V127.318H130.054ZM130.054 128.5V127.9H121.621V128.5V129.1H130.054V128.5ZM121.621 128.5H122.221V116.318H121.621H121.021V128.5H121.621ZM121.621 116.318V116.918H129.753V116.318V115.718H121.621V116.318ZM140.119 121.507L140.647 121.792L140.649 121.789L140.119 121.507ZM138.841 122.774L138.549 122.25L137.223 122.989L138.695 123.356L138.841 122.774ZM139.614 123.14L139.233 123.603L139.614 123.14ZM140.087 123.72L139.554 123.995L139.558 124.002L140.087 123.72ZM140.774 128.5V129.1H141.791L141.3 128.21L140.774 128.5ZM139.367 128.5L138.856 128.814L139.032 129.1H139.367V128.5ZM139.228 128.188L138.643 128.326L138.648 128.347L138.655 128.367L139.228 128.188ZM139.152 127.812L138.556 127.879L138.558 127.895L138.561 127.911L139.152 127.812ZM139.12 127.447L138.521 127.482L138.521 127.485L139.12 127.447ZM138.991 124.504L138.424 124.699L138.426 124.705L138.991 124.504ZM138.604 123.892L138.172 124.308L138.18 124.316L138.604 123.892ZM137.906 123.451L137.679 124.006L137.687 124.01L137.696 124.013L137.906 123.451ZM133.19 123.279V122.679H132.59V123.279H133.19ZM133.19 128.5V129.1H133.79V128.5H133.19ZM131.891 128.5H131.291V129.1H131.891V128.5ZM131.891 116.318V115.718H131.291V116.318H131.891ZM138.443 116.63L138.192 117.175L138.196 117.176L138.443 116.63ZM139.593 117.436L139.154 117.845L139.159 117.85L139.593 117.436ZM140.302 118.553L139.741 118.766L139.745 118.777L140.302 118.553ZM133.19 122.13H132.59V122.73H133.19V122.13ZM139.056 120.69L138.509 120.444L139.056 120.69ZM139.066 118.864L138.511 119.092L138.516 119.104L139.066 118.864ZM138.572 118.145L138.155 118.576L138.163 118.583L138.572 118.145ZM137.82 117.672L137.597 118.229L137.602 118.231L137.82 117.672ZM133.19 117.5V116.9H132.59V117.5H133.19ZM140.549 119.788H139.949C139.949 120.298 139.83 120.774 139.59 121.224L140.119 121.507L140.649 121.789C140.981 121.165 141.149 120.495 141.149 119.788H140.549ZM140.119 121.507L139.591 121.222C139.363 121.643 139.023 121.986 138.549 122.25L138.841 122.774L139.133 123.299C139.79 122.932 140.302 122.43 140.647 121.792L140.119 121.507ZM138.841 122.774L138.695 123.356C138.945 123.419 139.117 123.507 139.233 123.603L139.614 123.14L139.995 122.676C139.711 122.443 139.367 122.287 138.986 122.192L138.841 122.774ZM139.614 123.14L139.233 123.603C139.373 123.718 139.478 123.848 139.554 123.995L140.087 123.72L140.62 123.445C140.467 123.147 140.256 122.89 139.995 122.676L139.614 123.14ZM140.087 123.72L139.558 124.002C139.639 124.155 139.698 124.329 139.731 124.527L140.323 124.429L140.915 124.33C140.862 124.013 140.764 123.714 140.616 123.437L140.087 123.72ZM140.323 124.429L139.731 124.527C139.769 124.752 139.788 124.981 139.788 125.213H140.388H140.988C140.988 124.915 140.964 124.621 140.915 124.33L140.323 124.429ZM140.388 125.213H139.788V127.061H140.388H140.988V125.213H140.388ZM140.388 127.061H139.788C139.788 127.38 139.831 127.692 139.919 127.993L140.495 127.823L141.071 127.654C141.016 127.468 140.988 127.271 140.988 127.061H140.388ZM140.495 127.823L139.919 127.993C140.003 128.275 140.112 128.541 140.249 128.79L140.774 128.5L141.3 128.21C141.208 128.043 141.131 127.858 141.071 127.654L140.495 127.823ZM140.774 128.5V127.9H139.367V128.5V129.1H140.774V128.5ZM139.367 128.5L139.878 128.186C139.849 128.139 139.823 128.081 139.8 128.01L139.228 128.188L138.655 128.367C138.704 128.525 138.77 128.675 138.856 128.814L139.367 128.5ZM139.228 128.188L139.812 128.051C139.786 127.943 139.764 127.83 139.744 127.714L139.152 127.812L138.561 127.911C138.584 128.052 138.612 128.191 138.643 128.326L139.228 128.188ZM139.152 127.812L139.749 127.746C139.735 127.626 139.725 127.514 139.719 127.41L139.12 127.447L138.521 127.485C138.529 127.61 138.541 127.741 138.556 127.879L139.152 127.812ZM139.12 127.447L139.719 127.412C139.712 127.299 139.709 127.203 139.709 127.125H139.109H138.509C138.509 127.233 138.513 127.352 138.521 127.482L139.12 127.447ZM139.109 127.125H139.709V125.191H139.109H138.509V127.125H139.109ZM139.109 125.191H139.709C139.709 124.887 139.658 124.59 139.557 124.303L138.991 124.504L138.426 124.705C138.482 124.862 138.509 125.023 138.509 125.191H139.109ZM138.991 124.504L139.559 124.309C139.449 123.99 139.269 123.708 139.029 123.467L138.604 123.892L138.18 124.316C138.298 124.433 138.376 124.56 138.424 124.699L138.991 124.504ZM138.604 123.892L139.037 123.476C138.785 123.214 138.472 123.023 138.117 122.889L137.906 123.451L137.696 124.013C137.913 124.095 138.065 124.197 138.172 124.307L138.604 123.892ZM137.906 123.451L138.134 122.896C137.762 122.743 137.335 122.679 136.875 122.679V123.279V123.879C137.231 123.879 137.492 123.93 137.679 124.006L137.906 123.451ZM136.875 123.279V122.679H133.19V123.279V123.879H136.875V123.279ZM133.19 123.279H132.59V128.5H133.19H133.79V123.279H133.19ZM133.19 128.5V127.9H131.891V128.5V129.1H133.19V128.5ZM131.891 128.5H132.491V116.318H131.891H131.291V128.5H131.891ZM131.891 116.318V116.918H136.875V116.318V115.718H131.891V116.318ZM136.875 116.318V116.918C137.4 116.918 137.834 117.01 138.192 117.175L138.443 116.63L138.694 116.085C138.15 115.835 137.539 115.718 136.875 115.718V116.318ZM138.443 116.63L138.196 117.176C138.59 117.355 138.906 117.58 139.154 117.845L139.593 117.436L140.031 117.026C139.663 116.632 139.213 116.32 138.691 116.083L138.443 116.63ZM139.593 117.436L139.159 117.85C139.42 118.123 139.612 118.427 139.741 118.766L140.302 118.553L140.863 118.34C140.676 117.847 140.396 117.407 140.026 117.021L139.593 117.436ZM140.302 118.553L139.745 118.777C139.883 119.118 139.949 119.454 139.949 119.788H140.549H141.149C141.149 119.291 141.05 118.803 140.858 118.328L140.302 118.553ZM133.19 122.13V122.73H136.875V122.13V121.53H133.19V122.13ZM136.875 122.13V122.73C137.275 122.73 137.659 122.654 138.023 122.499L137.788 121.947L137.553 121.395C137.344 121.484 137.12 121.53 136.875 121.53V122.13ZM137.788 121.947L138.023 122.499C138.378 122.348 138.694 122.137 138.964 121.867L138.54 121.442L138.116 121.018C137.957 121.177 137.771 121.303 137.553 121.395L137.788 121.947ZM138.54 121.442L138.964 121.867C139.232 121.599 139.445 121.287 139.603 120.937L139.056 120.69L138.509 120.444C138.408 120.667 138.277 120.856 138.116 121.018L138.54 121.442ZM139.056 120.69L139.603 120.937C139.768 120.569 139.849 120.177 139.849 119.767H139.249H138.649C138.649 120.015 138.601 120.239 138.509 120.444L139.056 120.69ZM139.249 119.767H139.849C139.849 119.367 139.773 118.984 139.616 118.625L139.066 118.864L138.516 119.104C138.603 119.303 138.649 119.522 138.649 119.767H139.249ZM139.066 118.864L139.622 118.637C139.475 118.279 139.261 117.967 138.982 117.706L138.572 118.145L138.163 118.583C138.313 118.723 138.429 118.89 138.511 119.092L139.066 118.864ZM138.572 118.145L138.989 117.713C138.719 117.452 138.399 117.254 138.038 117.113L137.82 117.672L137.602 118.231C137.829 118.319 138.01 118.436 138.156 118.576L138.572 118.145ZM137.82 117.672L138.043 117.115C137.678 116.969 137.286 116.9 136.875 116.9V117.5V118.1C137.151 118.1 137.39 118.146 137.597 118.229L137.82 117.672ZM136.875 117.5V116.9H133.19V117.5V118.1H136.875V117.5ZM133.19 117.5H132.59V122.13H133.19H133.79V117.5H133.19Z" fill="#363636" mask="url(#path-2-outside-1_1422_252)"/>
<path d="M17.6191 138.969L15.9902 144.5H15.2578L13.582 137.855H14.3203L15.6445 143.234L17.2852 137.855H17.959L19.582 143.182C19.7969 142.295 20.0195 141.408 20.25 140.521C20.4844 139.635 20.709 138.746 20.9238 137.855H21.6621L19.9805 144.5H19.2539L17.6191 138.969ZM22.4297 142.244C22.4336 142.467 22.4727 142.684 22.5469 142.895C22.6211 143.102 22.7227 143.285 22.8516 143.445C22.9805 143.605 23.1328 143.734 23.3086 143.832C23.4844 143.93 23.6738 143.979 23.877 143.979C24.5645 143.979 25.0195 143.66 25.2422 143.023H25.8867C25.832 143.273 25.7402 143.496 25.6113 143.691C25.4863 143.883 25.334 144.047 25.1543 144.184C24.9746 144.316 24.7754 144.418 24.5566 144.488C24.3379 144.559 24.1113 144.594 23.877 144.594C23.541 144.594 23.2383 144.525 22.9688 144.389C22.7031 144.252 22.4746 144.068 22.2832 143.838C22.0918 143.604 21.9453 143.332 21.8438 143.023C21.7422 142.715 21.6914 142.389 21.6914 142.045C21.6914 141.725 21.7422 141.42 21.8438 141.131C21.9453 140.838 22.0898 140.582 22.2773 140.363C22.4688 140.145 22.6973 139.971 22.9629 139.842C23.2324 139.709 23.5352 139.643 23.8711 139.643C24.1914 139.643 24.4824 139.701 24.7441 139.818C25.0059 139.936 25.2266 140.098 25.4062 140.305C25.5898 140.512 25.7305 140.758 25.8281 141.043C25.9297 141.324 25.9805 141.631 25.9805 141.963V142.244H22.4297ZM25.2539 141.699C25.2461 141.496 25.207 141.309 25.1367 141.137C25.0703 140.961 24.9746 140.809 24.8496 140.68C24.7285 140.551 24.5801 140.451 24.4043 140.381C24.2324 140.307 24.0391 140.27 23.8242 140.27C23.625 140.27 23.4414 140.309 23.2734 140.387C23.1055 140.465 22.959 140.57 22.834 140.703C22.7129 140.836 22.6152 140.988 22.541 141.16C22.4707 141.332 22.4336 141.512 22.4297 141.699H25.2539ZM26.9883 137.82H27.6973V140.422C27.7793 140.309 27.873 140.205 27.9785 140.111C28.0879 140.014 28.2012 139.932 28.3184 139.865C28.4395 139.795 28.5605 139.74 28.6816 139.701C28.8066 139.662 28.9258 139.643 29.0391 139.643C29.3672 139.643 29.6543 139.709 29.9004 139.842C30.1465 139.971 30.3516 140.148 30.5156 140.375C30.6797 140.598 30.8027 140.859 30.8848 141.16C30.9668 141.461 31.0078 141.783 31.0078 142.127C31.0078 142.471 30.9648 142.793 30.8789 143.094C30.7969 143.395 30.6719 143.658 30.5039 143.885C30.3359 144.107 30.1289 144.283 29.8828 144.412C29.6367 144.541 29.3496 144.605 29.0215 144.605C28.7715 144.605 28.5273 144.537 28.2891 144.4C28.0547 144.26 27.8574 144.053 27.6973 143.779V144.5H26.9883V137.82ZM27.6973 142.127C27.6973 142.385 27.7266 142.627 27.7852 142.854C27.8438 143.076 27.9277 143.271 28.0371 143.439C28.1465 143.604 28.2812 143.734 28.4414 143.832C28.6016 143.93 28.7852 143.979 28.9922 143.979C29.2031 143.979 29.3887 143.93 29.5488 143.832C29.7129 143.734 29.8516 143.604 29.9648 143.439C30.0781 143.271 30.1641 143.076 30.2227 142.854C30.2812 142.627 30.3105 142.385 30.3105 142.127C30.3105 141.869 30.2812 141.629 30.2227 141.406C30.1641 141.18 30.0781 140.982 29.9648 140.814C29.8516 140.646 29.7129 140.514 29.5488 140.416C29.3887 140.318 29.2031 140.27 28.9922 140.27C28.793 140.27 28.6133 140.316 28.4531 140.41C28.2969 140.504 28.1621 140.631 28.0488 140.791C27.9395 140.951 27.8535 141.141 27.791 141.359C27.7324 141.574 27.7012 141.805 27.6973 142.051V142.127ZM32.748 143.023C32.752 143.199 32.7812 143.348 32.8359 143.469C32.8945 143.59 32.9727 143.689 33.0703 143.768C33.168 143.842 33.2832 143.896 33.416 143.932C33.5488 143.963 33.6934 143.979 33.8496 143.979C33.9785 143.979 34.1113 143.967 34.248 143.943C34.3887 143.92 34.5176 143.881 34.6348 143.826C34.752 143.768 34.8477 143.689 34.9219 143.592C35 143.494 35.0391 143.371 35.0391 143.223C35.0391 143.086 34.998 142.971 34.916 142.877C34.834 142.779 34.7266 142.695 34.5938 142.625C34.4609 142.551 34.3086 142.484 34.1367 142.426C33.9688 142.367 33.7949 142.307 33.6152 142.244C33.4355 142.182 33.2598 142.113 33.0879 142.039C32.9199 141.961 32.7695 141.869 32.6367 141.764C32.5039 141.658 32.3965 141.535 32.3145 141.395C32.2324 141.25 32.1914 141.078 32.1914 140.879C32.1914 140.668 32.2363 140.486 32.3262 140.334C32.4199 140.178 32.543 140.049 32.6953 139.947C32.8516 139.842 33.0293 139.766 33.2285 139.719C33.4277 139.668 33.6348 139.643 33.8496 139.643C34.0957 139.643 34.3223 139.668 34.5293 139.719C34.7402 139.77 34.9238 139.85 35.0801 139.959C35.2363 140.064 35.3594 140.199 35.4492 140.363C35.543 140.527 35.5957 140.723 35.6074 140.949C35.5488 140.949 35.4824 140.947 35.4082 140.943C35.3379 140.939 35.2793 140.938 35.2324 140.938H34.8926C34.877 140.809 34.8379 140.701 34.7754 140.615C34.7168 140.529 34.6406 140.461 34.5469 140.41C34.457 140.359 34.3516 140.324 34.2305 140.305C34.1094 140.281 33.9824 140.27 33.8496 140.27C33.541 140.27 33.3047 140.326 33.1406 140.439C32.9766 140.553 32.8945 140.703 32.8945 140.891C32.8945 141.016 32.9355 141.125 33.0176 141.219C33.0996 141.309 33.207 141.391 33.3398 141.465C33.4766 141.535 33.6289 141.602 33.7969 141.664C33.9688 141.723 34.1445 141.785 34.3242 141.852C34.5039 141.918 34.6777 141.988 34.8457 142.062C35.0176 142.137 35.1699 142.225 35.3027 142.326C35.4395 142.428 35.5488 142.545 35.6309 142.678C35.7129 142.811 35.7539 142.967 35.7539 143.146C35.7539 143.404 35.7012 143.625 35.5957 143.809C35.4941 143.992 35.3555 144.143 35.1797 144.26C35.0078 144.377 34.8066 144.461 34.5762 144.512C34.3457 144.566 34.1035 144.594 33.8496 144.594C33.6035 144.594 33.3711 144.562 33.1523 144.5C32.9375 144.434 32.7461 144.336 32.5781 144.207C32.4141 144.074 32.2812 143.91 32.1797 143.715C32.0781 143.52 32.0234 143.289 32.0156 143.023H32.748ZM37.6289 137.82V138.646H36.9316V137.82H37.6289ZM37.6289 139.73V144.5H36.9316V139.73H37.6289ZM39.873 138.307V139.73H40.6113V140.334H39.873V143.428C39.873 143.639 39.9219 143.783 40.0195 143.861C40.1172 143.939 40.2441 143.979 40.4004 143.979C40.4473 143.979 40.4961 143.977 40.5469 143.973C40.6016 143.969 40.6621 143.959 40.7285 143.943V144.518C40.6426 144.541 40.5469 144.559 40.4414 144.57C40.3359 144.586 40.2305 144.594 40.125 144.594C39.9961 144.594 39.873 144.576 39.7559 144.541C39.6426 144.51 39.541 144.459 39.4512 144.389C39.3652 144.314 39.2949 144.219 39.2402 144.102C39.1895 143.984 39.1641 143.842 39.1641 143.674V140.334H38.4258V139.73H39.1641V138.307H39.873ZM42.457 142.244C42.4609 142.467 42.5 142.684 42.5742 142.895C42.6484 143.102 42.75 143.285 42.8789 143.445C43.0078 143.605 43.1602 143.734 43.3359 143.832C43.5117 143.93 43.7012 143.979 43.9043 143.979C44.5918 143.979 45.0469 143.66 45.2695 143.023H45.9141C45.8594 143.273 45.7676 143.496 45.6387 143.691C45.5137 143.883 45.3613 144.047 45.1816 144.184C45.002 144.316 44.8027 144.418 44.584 144.488C44.3652 144.559 44.1387 144.594 43.9043 144.594C43.5684 144.594 43.2656 144.525 42.9961 144.389C42.7305 144.252 42.502 144.068 42.3105 143.838C42.1191 143.604 41.9727 143.332 41.8711 143.023C41.7695 142.715 41.7188 142.389 41.7188 142.045C41.7188 141.725 41.7695 141.42 41.8711 141.131C41.9727 140.838 42.1172 140.582 42.3047 140.363C42.4961 140.145 42.7246 139.971 42.9902 139.842C43.2598 139.709 43.5625 139.643 43.8984 139.643C44.2188 139.643 44.5098 139.701 44.7715 139.818C45.0332 139.936 45.2539 140.098 45.4336 140.305C45.6172 140.512 45.7578 140.758 45.8555 141.043C45.957 141.324 46.0078 141.631 46.0078 141.963V142.244H42.457ZM45.2812 141.699C45.2734 141.496 45.2344 141.309 45.1641 141.137C45.0977 140.961 45.002 140.809 44.877 140.68C44.7559 140.551 44.6074 140.451 44.4316 140.381C44.2598 140.307 44.0664 140.27 43.8516 140.27C43.6523 140.27 43.4688 140.309 43.3008 140.387C43.1328 140.465 42.9863 140.57 42.8613 140.703C42.7402 140.836 42.6426 140.988 42.5684 141.16C42.498 141.332 42.4609 141.512 42.457 141.699H45.2812ZM50.6309 142.426C50.6465 142.664 50.6992 142.883 50.7891 143.082C50.8828 143.281 51.0059 143.453 51.1582 143.598C51.3105 143.742 51.4902 143.855 51.6973 143.938C51.9043 144.02 52.1328 144.061 52.3828 144.061C52.6055 144.061 52.8164 144.037 53.0156 143.99C53.2188 143.939 53.3984 143.861 53.5547 143.756C53.7109 143.65 53.834 143.514 53.9238 143.346C54.0176 143.174 54.0645 142.967 54.0645 142.725C54.0645 142.525 54.0137 142.357 53.9121 142.221C53.8145 142.08 53.6836 141.961 53.5195 141.863C53.3594 141.762 53.1758 141.676 52.9688 141.605C52.7617 141.531 52.5508 141.461 52.3359 141.395C52.0703 141.316 51.8027 141.23 51.5332 141.137C51.2676 141.039 51.0273 140.916 50.8125 140.768C50.5977 140.615 50.4238 140.428 50.291 140.205C50.1582 139.982 50.0918 139.705 50.0918 139.373C50.0918 139.1 50.1445 138.857 50.25 138.646C50.3594 138.432 50.5117 138.254 50.707 138.113C50.9023 137.969 51.1348 137.859 51.4043 137.785C51.6777 137.711 51.9766 137.674 52.3008 137.674C52.7344 137.674 53.0938 137.736 53.3789 137.861C53.6641 137.986 53.8926 138.146 54.0645 138.342C54.2402 138.533 54.3672 138.746 54.4453 138.98C54.5234 139.215 54.5684 139.439 54.5801 139.654H53.8535C53.834 139.432 53.7812 139.236 53.6953 139.068C53.6094 138.9 53.4961 138.76 53.3555 138.646C53.2188 138.533 53.0586 138.447 52.875 138.389C52.6953 138.33 52.5039 138.301 52.3008 138.301C52.1133 138.301 51.9297 138.32 51.75 138.359C51.5703 138.395 51.4102 138.455 51.2695 138.541C51.1289 138.627 51.0156 138.738 50.9297 138.875C50.8438 139.008 50.8008 139.174 50.8008 139.373C50.8008 139.576 50.8496 139.748 50.9473 139.889C51.0449 140.029 51.1758 140.152 51.3398 140.258C51.5039 140.359 51.6914 140.447 51.9023 140.521C52.1133 140.596 52.332 140.668 52.5586 140.738C52.8281 140.82 53.0938 140.91 53.3555 141.008C53.6211 141.102 53.8594 141.223 54.0703 141.371C54.2812 141.516 54.4512 141.697 54.5801 141.916C54.709 142.131 54.7734 142.4 54.7734 142.725C54.7734 143.049 54.7129 143.334 54.5918 143.58C54.4746 143.826 54.3086 144.031 54.0938 144.195C53.8828 144.359 53.6309 144.482 53.3379 144.564C53.0449 144.65 52.7266 144.693 52.3828 144.693C52.0703 144.693 51.7656 144.641 51.4688 144.535C51.1758 144.43 50.9141 144.279 50.6836 144.084C50.4531 143.889 50.2656 143.65 50.1211 143.369C49.9805 143.088 49.9062 142.773 49.8984 142.426H50.6309ZM56.5195 142.244C56.5234 142.467 56.5625 142.684 56.6367 142.895C56.7109 143.102 56.8125 143.285 56.9414 143.445C57.0703 143.605 57.2227 143.734 57.3984 143.832C57.5742 143.93 57.7637 143.979 57.9668 143.979C58.6543 143.979 59.1094 143.66 59.332 143.023H59.9766C59.9219 143.273 59.8301 143.496 59.7012 143.691C59.5762 143.883 59.4238 144.047 59.2441 144.184C59.0645 144.316 58.8652 144.418 58.6465 144.488C58.4277 144.559 58.2012 144.594 57.9668 144.594C57.6309 144.594 57.3281 144.525 57.0586 144.389C56.793 144.252 56.5645 144.068 56.373 143.838C56.1816 143.604 56.0352 143.332 55.9336 143.023C55.832 142.715 55.7812 142.389 55.7812 142.045C55.7812 141.725 55.832 141.42 55.9336 141.131C56.0352 140.838 56.1797 140.582 56.3672 140.363C56.5586 140.145 56.7871 139.971 57.0527 139.842C57.3223 139.709 57.625 139.643 57.9609 139.643C58.2812 139.643 58.5723 139.701 58.834 139.818C59.0957 139.936 59.3164 140.098 59.4961 140.305C59.6797 140.512 59.8203 140.758 59.918 141.043C60.0195 141.324 60.0703 141.631 60.0703 141.963V142.244H56.5195ZM59.3438 141.699C59.3359 141.496 59.2969 141.309 59.2266 141.137C59.1602 140.961 59.0645 140.809 58.9395 140.68C58.8184 140.551 58.6699 140.451 58.4941 140.381C58.3223 140.307 58.1289 140.27 57.9141 140.27C57.7148 140.27 57.5312 140.309 57.3633 140.387C57.1953 140.465 57.0488 140.57 56.9238 140.703C56.8027 140.836 56.7051 140.988 56.6309 141.16C56.5605 141.332 56.5234 141.512 56.5195 141.699H59.3438ZM61.0957 139.73H61.7988V140.48C61.9004 140.332 62.0117 140.205 62.1328 140.1C62.2578 139.994 62.3848 139.908 62.5137 139.842C62.6465 139.771 62.7793 139.721 62.9121 139.689C63.0449 139.658 63.1719 139.643 63.293 139.643C63.5352 139.643 63.7617 139.707 63.9727 139.836C64.1875 139.965 64.3828 140.191 64.5586 140.516C64.6523 140.359 64.7598 140.227 64.8809 140.117C65.002 140.004 65.1309 139.912 65.2676 139.842C65.4043 139.771 65.543 139.721 65.6836 139.689C65.8281 139.654 65.9688 139.637 66.1055 139.637C66.3242 139.637 66.5254 139.674 66.709 139.748C66.8926 139.822 67.0508 139.924 67.1836 140.053C67.3164 140.182 67.4199 140.334 67.4941 140.51C67.5684 140.686 67.6055 140.877 67.6055 141.084V144.5H66.9023V141.283C66.9023 141.084 66.873 140.92 66.8145 140.791C66.7598 140.658 66.6875 140.555 66.5977 140.48C66.5117 140.402 66.4121 140.348 66.2988 140.316C66.1855 140.285 66.0742 140.27 65.9648 140.27C65.8164 140.27 65.668 140.303 65.5195 140.369C65.375 140.436 65.2422 140.527 65.1211 140.645C65 140.758 64.9023 140.893 64.8281 141.049C64.7539 141.205 64.7168 141.375 64.7168 141.559V144.5H64.0195V141.283C64.0195 141.084 63.9902 140.92 63.9316 140.791C63.873 140.658 63.7988 140.555 63.709 140.48C63.623 140.402 63.5273 140.348 63.4219 140.316C63.3164 140.285 63.2168 140.27 63.123 140.27C62.9355 140.27 62.7617 140.312 62.6016 140.398C62.4414 140.484 62.3008 140.594 62.1797 140.727C62.0625 140.859 61.9688 141.004 61.8984 141.16C61.832 141.316 61.7988 141.467 61.7988 141.611V144.5H61.0957V139.73ZM72.4805 144.418H71.7832V143.691C71.5371 143.977 71.2695 144.184 70.9805 144.312C70.6914 144.438 70.3945 144.5 70.0898 144.5C69.8672 144.5 69.666 144.467 69.4863 144.4C69.3105 144.334 69.1602 144.24 69.0352 144.119C68.9141 143.994 68.8203 143.844 68.7539 143.668C68.6914 143.488 68.6602 143.289 68.6602 143.07V139.643H69.3691V142.982C69.3691 143.311 69.4453 143.543 69.5977 143.68C69.7539 143.812 69.9668 143.879 70.2363 143.879C70.4473 143.879 70.6465 143.842 70.834 143.768C71.0215 143.689 71.1855 143.588 71.3262 143.463C71.4668 143.334 71.5781 143.188 71.6602 143.023C71.7422 142.859 71.7832 142.689 71.7832 142.514V139.643H72.4805V144.418ZM76.8105 142.051C76.8027 141.805 76.7695 141.574 76.7109 141.359C76.6523 141.141 76.5664 140.951 76.4531 140.791C76.3438 140.631 76.209 140.504 76.0488 140.41C75.8887 140.316 75.707 140.27 75.5039 140.27C75.2969 140.27 75.1113 140.318 74.9473 140.416C74.7871 140.514 74.6504 140.646 74.5371 140.814C74.4277 140.982 74.3438 141.18 74.2852 141.406C74.2266 141.629 74.1973 141.869 74.1973 142.127C74.1973 142.385 74.2266 142.627 74.2852 142.854C74.3438 143.076 74.4277 143.271 74.5371 143.439C74.6504 143.604 74.7871 143.734 74.9473 143.832C75.1113 143.93 75.2969 143.979 75.5039 143.979C75.7109 143.979 75.8945 143.93 76.0547 143.832C76.2188 143.734 76.3555 143.604 76.4648 143.439C76.5781 143.271 76.6641 143.076 76.7227 142.854C76.7812 142.627 76.8105 142.385 76.8105 142.127V142.051ZM77.5078 144.5H76.8105V143.779C76.6465 144.053 76.4453 144.26 76.207 144.4C75.9688 144.537 75.7246 144.605 75.4746 144.605C75.1504 144.605 74.8633 144.541 74.6133 144.412C74.3672 144.283 74.1602 144.107 73.9922 143.885C73.8281 143.658 73.7031 143.395 73.6172 143.094C73.5312 142.793 73.4883 142.471 73.4883 142.127C73.4883 141.783 73.5293 141.461 73.6113 141.16C73.6973 140.859 73.8223 140.598 73.9863 140.375C74.1504 140.148 74.3555 139.971 74.6016 139.842C74.8477 139.709 75.1328 139.643 75.457 139.643C75.5703 139.643 75.6895 139.662 75.8145 139.701C75.9395 139.74 76.0605 139.795 76.1777 139.865C76.2988 139.932 76.4141 140.014 76.5234 140.111C76.6328 140.205 76.7285 140.309 76.8105 140.422V137.82H77.5078V144.5ZM78.6504 141.008C78.666 140.773 78.7305 140.57 78.8438 140.398C78.9609 140.227 79.1074 140.086 79.2832 139.977C79.459 139.863 79.6543 139.779 79.8691 139.725C80.084 139.67 80.2988 139.643 80.5137 139.643C80.748 139.643 80.9766 139.668 81.1992 139.719C81.4219 139.77 81.6172 139.852 81.7852 139.965C81.957 140.078 82.0938 140.225 82.1953 140.404C82.3008 140.584 82.3535 140.801 82.3535 141.055V143.568C82.3535 143.619 82.3613 143.67 82.377 143.721C82.3965 143.768 82.4219 143.811 82.4531 143.85C82.4883 143.889 82.5254 143.92 82.5645 143.943C82.6074 143.967 82.6523 143.979 82.6992 143.979C82.7344 143.979 82.7695 143.975 82.8047 143.967C82.8438 143.959 82.8867 143.947 82.9336 143.932V144.512C82.832 144.539 82.7461 144.559 82.6758 144.57C82.6055 144.586 82.5273 144.594 82.4414 144.594C82.2422 144.594 82.0762 144.52 81.9434 144.371C81.8105 144.223 81.7344 143.99 81.7148 143.674C81.5625 143.873 81.4121 144.033 81.2637 144.154C81.1191 144.271 80.9727 144.363 80.8242 144.43C80.6797 144.496 80.5332 144.539 80.3848 144.559C80.2363 144.582 80.0859 144.594 79.9336 144.594C79.7383 144.594 79.5547 144.562 79.3828 144.5C79.2109 144.438 79.0605 144.348 78.9316 144.23C78.8066 144.113 78.707 143.973 78.6328 143.809C78.5625 143.641 78.5273 143.455 78.5273 143.252C78.5273 143.049 78.5723 142.875 78.6621 142.73C78.752 142.586 78.8691 142.463 79.0137 142.361C79.1621 142.256 79.3281 142.168 79.5117 142.098C79.6992 142.023 79.8906 141.959 80.0859 141.904C80.2812 141.846 80.4707 141.793 80.6543 141.746C80.8418 141.695 81.0078 141.639 81.1523 141.576C81.3008 141.514 81.4199 141.441 81.5098 141.359C81.5996 141.277 81.6445 141.176 81.6445 141.055C81.6445 140.773 81.5449 140.572 81.3457 140.451C81.1465 140.33 80.8633 140.27 80.4961 140.27C80.3555 140.27 80.2207 140.283 80.0918 140.311C79.9668 140.338 79.8555 140.381 79.7578 140.439C79.6602 140.498 79.5781 140.574 79.5117 140.668C79.4492 140.762 79.4082 140.875 79.3887 141.008H78.6504ZM81.6445 141.805C81.5469 141.906 81.418 141.992 81.2578 142.062C81.1016 142.129 80.9336 142.189 80.7539 142.244C80.5781 142.299 80.3984 142.352 80.2148 142.402C80.0312 142.453 79.8652 142.514 79.7168 142.584C79.5723 142.654 79.4531 142.74 79.3594 142.842C79.2695 142.939 79.2246 143.064 79.2246 143.217C79.2246 143.354 79.248 143.471 79.2949 143.568C79.3418 143.662 79.4043 143.74 79.4824 143.803C79.5605 143.865 79.6484 143.91 79.7461 143.938C79.8438 143.965 79.9434 143.979 80.0449 143.979C80.3379 143.979 80.625 143.891 80.9062 143.715C81.1875 143.535 81.4336 143.262 81.6445 142.895V141.805ZM84.6504 137.82V140.404C84.8457 140.115 85.0781 139.916 85.3477 139.807C85.6172 139.697 85.9062 139.643 86.2148 139.643C86.4414 139.643 86.6504 139.68 86.8418 139.754C87.0332 139.824 87.1973 139.924 87.334 140.053C87.4746 140.182 87.582 140.334 87.6562 140.51C87.7344 140.682 87.7734 140.869 87.7734 141.072V144.5H87.0703V141.195C87.0703 141.027 87.041 140.885 86.9824 140.768C86.9277 140.65 86.8535 140.555 86.7598 140.48C86.666 140.406 86.5566 140.354 86.4316 140.322C86.3105 140.287 86.1836 140.27 86.0508 140.27C85.8867 140.27 85.7207 140.305 85.5527 140.375C85.3848 140.441 85.2344 140.535 85.1016 140.656C84.9688 140.777 84.8594 140.92 84.7734 141.084C84.6914 141.244 84.6504 141.418 84.6504 141.605V144.5H83.9414V137.82H84.6504ZM92.3965 142.426C92.4121 142.664 92.4648 142.883 92.5547 143.082C92.6484 143.281 92.7715 143.453 92.9238 143.598C93.0762 143.742 93.2559 143.855 93.4629 143.938C93.6699 144.02 93.8984 144.061 94.1484 144.061C94.3711 144.061 94.582 144.037 94.7812 143.99C94.9844 143.939 95.1641 143.861 95.3203 143.756C95.4766 143.65 95.5996 143.514 95.6895 143.346C95.7832 143.174 95.8301 142.967 95.8301 142.725C95.8301 142.525 95.7793 142.357 95.6777 142.221C95.5801 142.08 95.4492 141.961 95.2852 141.863C95.125 141.762 94.9414 141.676 94.7344 141.605C94.5273 141.531 94.3164 141.461 94.1016 141.395C93.8359 141.316 93.5684 141.23 93.2988 141.137C93.0332 141.039 92.793 140.916 92.5781 140.768C92.3633 140.615 92.1895 140.428 92.0566 140.205C91.9238 139.982 91.8574 139.705 91.8574 139.373C91.8574 139.1 91.9102 138.857 92.0156 138.646C92.125 138.432 92.2773 138.254 92.4727 138.113C92.668 137.969 92.9004 137.859 93.1699 137.785C93.4434 137.711 93.7422 137.674 94.0664 137.674C94.5 137.674 94.8594 137.736 95.1445 137.861C95.4297 137.986 95.6582 138.146 95.8301 138.342C96.0059 138.533 96.1328 138.746 96.2109 138.98C96.2891 139.215 96.334 139.439 96.3457 139.654H95.6191C95.5996 139.432 95.5469 139.236 95.4609 139.068C95.375 138.9 95.2617 138.76 95.1211 138.646C94.9844 138.533 94.8242 138.447 94.6406 138.389C94.4609 138.33 94.2695 138.301 94.0664 138.301C93.8789 138.301 93.6953 138.32 93.5156 138.359C93.3359 138.395 93.1758 138.455 93.0352 138.541C92.8945 138.627 92.7812 138.738 92.6953 138.875C92.6094 139.008 92.5664 139.174 92.5664 139.373C92.5664 139.576 92.6152 139.748 92.7129 139.889C92.8105 140.029 92.9414 140.152 93.1055 140.258C93.2695 140.359 93.457 140.447 93.668 140.521C93.8789 140.596 94.0977 140.668 94.3242 140.738C94.5938 140.82 94.8594 140.91 95.1211 141.008C95.3867 141.102 95.625 141.223 95.8359 141.371C96.0469 141.516 96.2168 141.697 96.3457 141.916C96.4746 142.131 96.5391 142.4 96.5391 142.725C96.5391 143.049 96.4785 143.334 96.3574 143.58C96.2402 143.826 96.0742 144.031 95.8594 144.195C95.6484 144.359 95.3965 144.482 95.1035 144.564C94.8105 144.65 94.4922 144.693 94.1484 144.693C93.8359 144.693 93.5312 144.641 93.2344 144.535C92.9414 144.43 92.6797 144.279 92.4492 144.084C92.2188 143.889 92.0312 143.65 91.8867 143.369C91.7461 143.088 91.6719 142.773 91.6641 142.426H92.3965ZM98.2852 142.244C98.2891 142.467 98.3281 142.684 98.4023 142.895C98.4766 143.102 98.5781 143.285 98.707 143.445C98.8359 143.605 98.9883 143.734 99.1641 143.832C99.3398 143.93 99.5293 143.979 99.7324 143.979C100.42 143.979 100.875 143.66 101.098 143.023H101.742C101.688 143.273 101.596 143.496 101.467 143.691C101.342 143.883 101.189 144.047 101.01 144.184C100.83 144.316 100.631 144.418 100.412 144.488C100.193 144.559 99.9668 144.594 99.7324 144.594C99.3965 144.594 99.0938 144.525 98.8242 144.389C98.5586 144.252 98.3301 144.068 98.1387 143.838C97.9473 143.604 97.8008 143.332 97.6992 143.023C97.5977 142.715 97.5469 142.389 97.5469 142.045C97.5469 141.725 97.5977 141.42 97.6992 141.131C97.8008 140.838 97.9453 140.582 98.1328 140.363C98.3242 140.145 98.5527 139.971 98.8184 139.842C99.0879 139.709 99.3906 139.643 99.7266 139.643C100.047 139.643 100.338 139.701 100.6 139.818C100.861 139.936 101.082 140.098 101.262 140.305C101.445 140.512 101.586 140.758 101.684 141.043C101.785 141.324 101.836 141.631 101.836 141.963V142.244H98.2852ZM101.109 141.699C101.102 141.496 101.062 141.309 100.992 141.137C100.926 140.961 100.83 140.809 100.705 140.68C100.584 140.551 100.436 140.451 100.26 140.381C100.088 140.307 99.8945 140.27 99.6797 140.27C99.4805 140.27 99.2969 140.309 99.1289 140.387C98.9609 140.465 98.8145 140.57 98.6895 140.703C98.5684 140.836 98.4707 140.988 98.3965 141.16C98.3262 141.332 98.2891 141.512 98.2852 141.699H101.109ZM106.166 142.051C106.158 141.805 106.125 141.574 106.066 141.359C106.008 141.141 105.922 140.951 105.809 140.791C105.699 140.631 105.564 140.504 105.404 140.41C105.244 140.316 105.062 140.27 104.859 140.27C104.652 140.27 104.467 140.318 104.303 140.416C104.143 140.514 104.006 140.646 103.893 140.814C103.783 140.982 103.699 141.18 103.641 141.406C103.582 141.629 103.553 141.869 103.553 142.127C103.553 142.385 103.582 142.627 103.641 142.854C103.699 143.076 103.783 143.271 103.893 143.439C104.006 143.604 104.143 143.734 104.303 143.832C104.467 143.93 104.652 143.979 104.859 143.979C105.066 143.979 105.25 143.93 105.41 143.832C105.574 143.734 105.711 143.604 105.82 143.439C105.934 143.271 106.02 143.076 106.078 142.854C106.137 142.627 106.166 142.385 106.166 142.127V142.051ZM106.863 144.5H106.166V143.779C106.002 144.053 105.801 144.26 105.562 144.4C105.324 144.537 105.08 144.605 104.83 144.605C104.506 144.605 104.219 144.541 103.969 144.412C103.723 144.283 103.516 144.107 103.348 143.885C103.184 143.658 103.059 143.395 102.973 143.094C102.887 142.793 102.844 142.471 102.844 142.127C102.844 141.783 102.885 141.461 102.967 141.16C103.053 140.859 103.178 140.598 103.342 140.375C103.506 140.148 103.711 139.971 103.957 139.842C104.203 139.709 104.488 139.643 104.812 139.643C104.926 139.643 105.045 139.662 105.17 139.701C105.295 139.74 105.416 139.795 105.533 139.865C105.654 139.932 105.77 140.014 105.879 140.111C105.988 140.205 106.084 140.309 106.166 140.422V137.82H106.863V144.5ZM111.691 144.418H110.994V143.691C110.748 143.977 110.48 144.184 110.191 144.312C109.902 144.438 109.605 144.5 109.301 144.5C109.078 144.5 108.877 144.467 108.697 144.4C108.521 144.334 108.371 144.24 108.246 144.119C108.125 143.994 108.031 143.844 107.965 143.668C107.902 143.488 107.871 143.289 107.871 143.07V139.643H108.58V142.982C108.58 143.311 108.656 143.543 108.809 143.68C108.965 143.812 109.178 143.879 109.447 143.879C109.658 143.879 109.857 143.842 110.045 143.768C110.232 143.689 110.396 143.588 110.537 143.463C110.678 143.334 110.789 143.188 110.871 143.023C110.953 142.859 110.994 142.689 110.994 142.514V139.643H111.691V144.418ZM113.408 137.82V140.404C113.604 140.115 113.836 139.916 114.105 139.807C114.375 139.697 114.664 139.643 114.973 139.643C115.199 139.643 115.408 139.68 115.6 139.754C115.791 139.824 115.955 139.924 116.092 140.053C116.232 140.182 116.34 140.334 116.414 140.51C116.492 140.682 116.531 140.869 116.531 141.072V144.5H115.828V141.195C115.828 141.027 115.799 140.885 115.74 140.768C115.686 140.65 115.611 140.555 115.518 140.48C115.424 140.406 115.314 140.354 115.189 140.322C115.068 140.287 114.941 140.27 114.809 140.27C114.645 140.27 114.479 140.305 114.311 140.375C114.143 140.441 113.992 140.535 113.859 140.656C113.727 140.777 113.617 140.92 113.531 141.084C113.449 141.244 113.408 141.418 113.408 141.605V144.5H112.699V137.82H113.408ZM125.408 137.855V138.5H123.211V144.5H122.502V138.5H120.305V137.855H125.408ZM125.766 142.244C125.77 142.467 125.809 142.684 125.883 142.895C125.957 143.102 126.059 143.285 126.188 143.445C126.316 143.605 126.469 143.734 126.645 143.832C126.82 143.93 127.01 143.979 127.213 143.979C127.9 143.979 128.355 143.66 128.578 143.023H129.223C129.168 143.273 129.076 143.496 128.947 143.691C128.822 143.883 128.67 144.047 128.49 144.184C128.311 144.316 128.111 144.418 127.893 144.488C127.674 144.559 127.447 144.594 127.213 144.594C126.877 144.594 126.574 144.525 126.305 144.389C126.039 144.252 125.811 144.068 125.619 143.838C125.428 143.604 125.281 143.332 125.18 143.023C125.078 142.715 125.027 142.389 125.027 142.045C125.027 141.725 125.078 141.42 125.18 141.131C125.281 140.838 125.426 140.582 125.613 140.363C125.805 140.145 126.033 139.971 126.299 139.842C126.568 139.709 126.871 139.643 127.207 139.643C127.527 139.643 127.818 139.701 128.08 139.818C128.342 139.936 128.562 140.098 128.742 140.305C128.926 140.512 129.066 140.758 129.164 141.043C129.266 141.324 129.316 141.631 129.316 141.963V142.244H125.766ZM128.59 141.699C128.582 141.496 128.543 141.309 128.473 141.137C128.406 140.961 128.311 140.809 128.186 140.68C128.064 140.551 127.916 140.451 127.74 140.381C127.568 140.307 127.375 140.27 127.16 140.27C126.961 140.27 126.777 140.309 126.609 140.387C126.441 140.465 126.295 140.57 126.17 140.703C126.049 140.836 125.951 140.988 125.877 141.16C125.807 141.332 125.77 141.512 125.766 141.699H128.59ZM131.033 137.82V140.404C131.229 140.115 131.461 139.916 131.73 139.807C132 139.697 132.289 139.643 132.598 139.643C132.824 139.643 133.033 139.68 133.225 139.754C133.416 139.824 133.58 139.924 133.717 140.053C133.857 140.182 133.965 140.334 134.039 140.51C134.117 140.682 134.156 140.869 134.156 141.072V144.5H133.453V141.195C133.453 141.027 133.424 140.885 133.365 140.768C133.311 140.65 133.236 140.555 133.143 140.48C133.049 140.406 132.939 140.354 132.814 140.322C132.693 140.287 132.566 140.27 132.434 140.27C132.27 140.27 132.104 140.305 131.936 140.375C131.768 140.441 131.617 140.535 131.484 140.656C131.352 140.777 131.242 140.92 131.156 141.084C131.074 141.244 131.033 141.418 131.033 141.605V144.5H130.324V137.82H131.033ZM136.055 143.574V144.5H135.152V143.574H136.055Z" fill="#535353"/>
</svg>
