<svg width="80" height="68" viewBox="0 0 80 68" fill="none" xmlns="http://www.w3.org/2000/svg">
<path d="M39.251 0.367188C41.8288 0.748654 44.3121 1.42 46.666 2.34863C46.3087 3.19074 46.6857 4.16865 47.5234 4.54883C49.4498 5.42307 51.2751 6.48179 52.9766 7.70312C53.7236 8.23935 54.7577 8.07847 55.3096 7.34961C57.3172 8.94784 59.138 10.7698 60.7363 12.7773C60.008 13.3293 59.8477 14.3636 60.3838 15.1104C61.6052 16.8119 62.6648 18.637 63.5391 20.5635C63.9192 21.4012 64.8962 21.7781 65.7383 21.4209C66.6669 23.7748 67.3373 26.2581 67.7188 28.8359C66.8116 28.9479 66.1541 29.7627 66.2432 30.6777C66.3441 31.7146 66.3955 32.7667 66.3955 33.8311C66.3955 34.8954 66.3441 35.9475 66.2432 36.9844C66.1542 37.8993 66.8117 38.7132 67.7188 38.8252C67.3373 41.4027 66.6667 43.8856 65.7383 46.2393C64.9499 45.9051 64.0425 46.2149 63.6182 46.9434L63.5391 47.0977C62.774 48.7834 61.867 50.3915 60.834 51.9072L60.3838 52.5508C59.8478 53.2975 60.0082 54.3318 60.7363 54.8838C59.1382 56.8912 57.3179 58.7134 55.3105 60.3115C54.7587 59.5824 53.7236 59.4217 52.9766 59.958C51.4878 61.0267 49.9044 61.9713 48.2412 62.7764L47.5234 63.1133C46.686 63.4934 46.3082 64.4705 46.665 65.3125C44.3114 66.241 41.8285 66.9115 39.251 67.293C39.139 66.386 38.3251 65.7285 37.4102 65.8174C36.3732 65.9183 35.3212 65.9697 34.2568 65.9697C33.1925 65.9697 32.1404 65.9183 31.1035 65.8174L30.9297 65.8096C30.0871 65.8133 29.3666 66.4436 29.2617 67.293C26.6839 66.9115 24.2006 66.2411 21.8467 65.3125C22.2039 64.4704 21.8269 63.4934 20.9893 63.1133L20.2715 62.7764C18.6084 61.9713 17.0249 61.0267 15.5361 59.958L15.3906 59.8643C14.6595 59.4442 13.7189 59.6286 13.2021 60.3115C11.1946 58.7133 9.37359 56.8914 7.77539 54.8838C8.50422 54.3319 8.66513 53.2978 8.12891 52.5508C6.90757 50.8493 5.84885 49.024 4.97461 47.0977L4.89453 46.9434C4.47 46.2146 3.56206 45.9044 2.77344 46.2393C1.84505 43.8857 1.17437 41.4026 0.792969 38.8252C1.70062 38.7138 2.35852 37.8997 2.26953 36.9844L2.20312 36.2041C2.16504 35.6819 2.13981 35.156 2.12695 34.627L2.11719 33.8311C2.11719 33.0328 2.14602 32.2412 2.20312 31.458L2.26953 30.6777C2.35862 29.7623 1.7007 28.9473 0.792969 28.8359C1.17444 26.2582 1.84486 23.7747 2.77344 21.4209C3.56225 21.7561 4.46998 21.4468 4.89453 20.7178L4.97461 20.5635C5.73962 18.8779 6.64579 17.2695 7.67871 15.7539L8.12891 15.1104C8.66516 14.3633 8.50436 13.3292 7.77539 12.7773C9.37375 10.7696 11.1954 8.94797 13.2031 7.34961C13.72 8.03238 14.6596 8.217 15.3906 7.79688L15.5361 7.70312C17.0249 6.63444 18.6084 5.68985 20.2715 4.88477L20.9893 4.54883C21.8271 4.16858 22.2033 3.19084 21.8457 2.34863C24.1999 1.41982 26.6835 0.748718 29.2617 0.367188C29.366 1.21717 30.0866 1.84882 30.9297 1.85254L31.1035 1.84375C32.1404 1.74286 33.1925 1.69141 34.2568 1.69141C35.3212 1.69142 36.3732 1.74284 37.4102 1.84375C38.3255 1.93271 39.1396 1.27483 39.251 0.367188Z" stroke="#302815" stroke-width="3.38307" stroke-miterlimit="2.9238" stroke-linecap="round" stroke-linejoin="round" stroke-dasharray="6.92 11.53"/>
<path d="M47.8535 30.665C47.9229 30.6764 47.9891 30.7094 48.041 30.7617L48.0459 30.7666C48.1048 30.8255 48.5281 31.3248 48.9219 33.1963C49.3098 35.0404 49.6445 38.0955 49.6445 43.1094C49.6445 46.9146 48.1676 49.9826 45.5771 52.1201C42.9649 54.2756 39.1273 55.5563 34.3174 55.5566C34.2758 55.5564 34.2342 55.549 34.1953 55.5322L34.1875 55.5293L34.2021 55.5342C34.1915 55.5255 34.1099 55.4713 33.957 55.3164C33.775 55.132 33.5501 54.8646 33.2998 54.5176C32.8006 53.8252 32.2413 52.8725 31.748 51.7578C30.751 49.5044 30.094 46.7499 30.584 44.2373L30.585 44.2363C31.2715 40.7049 33.8652 37.6491 38.6602 35.2295L38.6592 35.2285L47.6494 30.6963C47.7132 30.6643 47.7844 30.6537 47.8535 30.665ZM20.7764 30.665C20.8453 30.6537 20.9169 30.6636 20.9805 30.6953V30.6963L29.9707 35.2295L29.9727 35.2305C30.0544 35.2716 30.1194 35.3455 30.1504 35.4385C30.1814 35.5318 30.1748 35.6343 30.1318 35.7217C30.0888 35.8087 30.0145 35.8723 29.9287 35.9014C29.8643 35.9231 29.7953 35.9251 29.7305 35.9072L29.668 35.8838L22.1338 32.0762L20.7715 31.3877L20.4824 32.8857C19.8284 36.265 19.5579 39.7086 19.6777 43.1494C19.6375 45.4352 20.3168 47.6767 21.6221 49.5498C22.9317 51.429 24.8024 52.8383 26.9629 53.5742V53.5752C27.0047 53.5911 27.0436 53.6156 27.0771 53.6475C27.1109 53.6796 27.1388 53.7187 27.1582 53.7627C27.1776 53.8067 27.1884 53.8546 27.1895 53.9033C27.1905 53.9522 27.1816 54.0009 27.1641 54.0459C27.1465 54.0909 27.1203 54.1314 27.0879 54.165C27.0555 54.1986 27.0179 54.2254 26.9766 54.2432C26.9351 54.261 26.8901 54.2702 26.8457 54.2705C26.8015 54.2708 26.7573 54.2623 26.7158 54.2451L26.6855 54.2324L26.6553 54.2217L26.2324 54.0645C24.1392 53.2384 22.3302 51.8039 21.0381 49.9365C19.6596 47.9443 18.9401 45.5619 18.9854 43.1309L18.9863 43.1201V43.1094C18.9863 38.0954 19.321 35.0404 19.709 33.1963C20.1031 31.3232 20.5266 30.8248 20.585 30.7666L20.5898 30.7617C20.6417 30.7095 20.7072 30.6765 20.7764 30.665ZM46.4961 32.0762L38.96 35.877H38.959C34.6991 38.0261 31.9608 40.8372 31.2637 44.3525L31.2598 44.3721L31.2568 44.3916C30.905 46.548 31.1917 48.7615 32.082 50.7549L33.5723 54.0928L34.2666 50.5039C34.7303 48.1044 35.7869 45.8625 37.3379 43.9863C38.8889 42.1103 40.8838 40.6604 43.1367 39.7705L43.1621 39.7607L43.1865 39.749C43.2275 39.7307 43.2713 39.7208 43.3154 39.7197C43.3598 39.7187 43.4045 39.7267 43.4463 39.7432C43.4882 39.7597 43.5272 39.7848 43.5605 39.8174C43.5938 39.8499 43.6208 39.8894 43.6396 39.9336C43.6585 39.978 43.6685 40.0263 43.6689 40.0752C43.6694 40.1239 43.6606 40.1722 43.6426 40.2168C43.6245 40.2615 43.5973 40.3018 43.5645 40.335C43.5481 40.3515 43.5305 40.3662 43.5117 40.3789L43.4521 40.4111C40.8257 41.46 38.5756 43.2831 36.9951 45.6406C35.4115 48.003 34.5738 50.7929 34.5908 53.6426L34.5977 54.7881H35.7793L35.8135 54.7861C39.7248 54.5527 43.0066 53.3976 45.3301 51.3779C47.6713 49.3428 48.9463 46.5073 48.9531 43.1367C49.0714 39.7 48.8012 36.2608 48.1475 32.8857L47.8574 31.3896L46.4961 32.0762Z" stroke="#27B43E" stroke-width="2.30533"/>
<path d="M13.4512 20.9785C13.4512 20.9785 19.0794 25.1964 34.3144 25.1273C49.5494 25.0581 55.1776 20.9785 55.1776 20.9785" stroke="#27B43E" stroke-width="2.30533" stroke-linecap="round"/>
<path d="M34.3125 10.8359C40.1871 10.8359 45.4622 11.5314 49.2314 12.6299C51.1237 13.1814 52.5714 13.8164 53.5195 14.4697C54.5035 15.1477 54.7148 15.6727 54.7148 15.9658C54.7147 16.259 54.5033 16.784 53.5195 17.4619C52.5714 18.1152 51.1236 18.7493 49.2314 19.3008C45.4622 20.3993 40.1872 21.0947 34.3125 21.0947C28.4378 21.0947 23.1628 20.3993 19.3936 19.3008C17.5013 18.7493 16.0536 18.1152 15.1055 17.4619C14.1217 16.7841 13.9103 16.259 13.9102 15.9658C13.9102 15.6727 14.1217 15.1477 15.1055 14.4697C16.0536 13.8164 17.5013 13.1814 19.3936 12.6299C23.1628 11.5314 28.4378 10.8359 34.3125 10.8359Z" stroke="#27B43E" stroke-width="2.30533"/>
<path d="M63.7734 22.584C64.949 22.0811 66.2807 22.0897 67.4502 22.6064L75.7471 26.2715C77.832 27.1928 78.9302 29.4997 78.332 31.6992L73.9199 47.9229C73.4956 49.483 72.2849 50.707 70.7295 51.1484L55.9531 55.3408L53.4385 56.0547L57.4893 47.9531L57.7148 47.5029L58.1992 47.3623L67.0078 44.8047C67.7964 44.5757 68.4041 43.9443 68.6025 43.1475L71.0098 33.4795C71.2752 32.4129 70.7507 31.3071 69.7568 30.8379L66.4639 29.2832C65.891 29.0128 65.2317 28.9905 64.6416 29.2207L62.5654 30.0293L60.0098 31.4844C59.6103 31.7117 59.2879 32.0539 59.084 32.4658L56.6719 37.3389L54.4863 36.8271V29.5996C54.4863 27.7541 55.5864 26.0862 57.2832 25.3604L63.7734 22.584Z" fill="#302815" stroke="white" stroke-width="2.30533" stroke-linecap="round"/>
</svg>
